<svg xmlns="http://www.w3.org/2000/svg" viewBox="0 0 43.62 23.49"><defs><style>.cls-1{fill:#eaad4b;}</style></defs><title>falling-leaf-six</title><g id="Layer_2" data-name="Layer 2"><g id="home_-_section_four" data-name="home - section four"><path class="cls-1" d="M34.57,5c-.38,11.52-15.7,8.58-23.11,9.7-4.73.72-9,2.74-11.35,7l2,1.18C5.89,14.31,8.63,6.06,18.6,3.2,26.88.83,34.29,5.28,42.5,4.43c1.48-.15,1.5-2.49,0-2.34C37.34,2.63,32.68.71,27.64.16a25.17,25.17,0,0,0-12.2,1.65C6.44,5.45,3.76,13.39.11,21.71c-.59,1.34,1.28,2.53,2,1.18C8.82,10.67,36.3,23.58,36.91,5c.05-1.51-2.29-1.51-2.34,0Z"/><path class="cls-1" d="M32.25,3.78C30.6,8.56,21.62,10.3,17.53,10.6A28,28,0,0,0,6.4,13.7c-1.34.68-.16,2.69,1.18,2,3.95-2,7.3-2.51,11.64-2.88a20.63,20.63,0,0,0,6.06-1.34c3.44-1.36,7.94-3.37,9.22-7.1.49-1.42-1.77-2-2.25-.62Z"/></g></g></svg>