<svg xmlns="http://www.w3.org/2000/svg" viewBox="0 0 34.73 34.33"><defs><style>.cls-1{fill:#eaad4b;}</style></defs><title>falling-leaf-five</title><g id="Layer_2" data-name="Layer 2"><g id="home_-_section_four" data-name="home - section four"><path class="cls-1" d="M28.9,29.59C34.61,12.13,4.48,14.39,2.3.84c-.21-1.3-2.38-1-2.3.31.57,8.9.32,17.4,7.33,23.9a25.25,25.25,0,0,0,8.94,5.32C21.73,32.25,27.68,31.63,33,34.2c1.35.65,2.54-1.36,1.18-2-7-3.39-15-2-21.76-6.21C3.05,20.16,3,11,2.34,1.15L0,1.46C.93,7,5.2,10.52,10.11,12.73c6.64,3,19.88,6,16.54,16.24-.47,1.43,1.79,2,2.25.62Z"/><path class="cls-1" d="M26.42,29.29c.07-4.16-4.16-8.12-7.16-10.51a22.9,22.9,0,0,0-5.31-3,25.6,25.6,0,0,1-9-6.34c-1-1.1-2.69.55-1.65,1.65A25.46,25.46,0,0,0,12,17.51c4,1.73,12.16,6.35,12.06,11.78a1.17,1.17,0,0,0,2.34,0Z"/></g></g></svg>