<svg xmlns="http://www.w3.org/2000/svg" viewBox="0 0 34.73 34.33"><defs><style>.cls-1{fill:#eaad4b;}</style></defs><title>falling-leaf-eight</title><g id="Layer_2" data-name="Layer 2"><g id="home_-_section_four" data-name="home - section four"><path class="cls-1" d="M5.83,4.74C.12,22.2,30.25,19.93,32.43,33.49c.21,1.3,2.38,1,2.3-.31-.57-8.91-.32-17.4-7.33-23.9A25.11,25.11,0,0,0,18.46,4C13,2.07,7.05,2.69,1.78.13.43-.53-.76,1.49.6,2.15c7,3.39,15,2,21.76,6.21,9.32,5.8,9.4,14.92,10,24.82l2.3-.31c-.89-5.55-5.16-9.06-10.07-11.28-6.64-3-19.88-6-16.54-16.23.47-1.43-1.79-2.05-2.25-.62Z"/><path class="cls-1" d="M8.31,5c-.07,4.16,4.16,8.11,7.16,10.51a23.27,23.27,0,0,0,5.31,3,25.47,25.47,0,0,1,9,6.34c1,1.1,2.69-.56,1.65-1.65a25.46,25.46,0,0,0-8.75-6.4c-4-1.74-12.16-6.35-12.06-11.78A1.17,1.17,0,0,0,8.31,5Z"/></g></g></svg>