<svg xmlns="http://www.w3.org/2000/svg" viewBox="0 0 127.95 137.86"><defs><style>.cls-1{fill:#ddaf4a;}</style></defs><title>apple</title><g id="Layer_2" data-name="Layer 2"><g id="home_-_section_two" data-name="home - section two"><path class="cls-1" d="M67.31,36.21C53,39.54,41.56,25.15,27.34,25.42c-11.83.22-21.2,9.67-25.19,20.2C-2.92,59,1.63,73.47,9,85a122.1,122.1,0,0,0,14.26,17.65,70.57,70.57,0,0,1,8.63,10.5c2.26,3.63,3.63,7.68,5.56,11.48,2.57,5.09,6.78,10.18,12.82,10.94a11,11,0,0,0,6.82-1.4c4.41-2.41,7.26-5.86,12.18-1.85,8.69,7.1,21.72,7.79,30-.59,4.81-4.88,6.67-11.69,8.24-18.16a91.4,91.4,0,0,1,9.16-23.67c6.89-12.35,15.56-27.34,8.88-41.66-6.06-13-21.6-18-34.66-20.34C83,26.5,76,26.58,70.22,32.73,63.49,39.85,58,48.61,53.09,57a1.5,1.5,0,0,0,2.59,1.52A174.23,174.23,0,0,1,69.05,38.81c2.55-3.23,5.22-6.83,9.3-8.18,4.39-1.46,9.37-.31,13.76.58,11.06,2.22,24.08,6.33,30,16.81C130,62.16,120,77.66,113.22,90a76.1,76.1,0,0,0-6.94,16.12c-1.85,6.61-2.66,13.82-6.27,19.79A18.61,18.61,0,0,1,83.38,135a18.87,18.87,0,0,1-8-2c-2.72-1.37-4.6-4-7.35-5.23-4.1-1.86-7.37.64-10.71,2.79C49,135.87,42.79,129,39.36,121.73c-2.72-5.73-5.15-11.07-9.27-16-4.36-5.2-9.3-9.85-13.5-15.2C8.15,79.82.68,65.74,3.52,51.65,6.25,38.06,18.38,25.58,33.06,29.1c11.95,2.87,22,13,35.05,10,1.88-.44,1.08-3.33-.8-2.89Z"/><path class="cls-1" d="M64.68,41.68l14.18-7.56c3.45-1.84,8.27-3.53,10.77-6.74,2.11-2.73,1.8-6.1,1.68-9.36-.21-5.52-.44-11-.66-16.57a1.5,1.5,0,0,0-2.94-.4c-2.86,7.62-13.33,9.4-18.28,15.57-4.08,5.09-5.81,11.53-3.84,17.84.58,1.83,3.48,1,2.9-.8-2.79-8.92,2.93-16.54,10.33-20.88,4.9-2.87,9.69-5.35,11.78-10.93l-2.95-.4.51,12.89c.19,4.79,1.44,9.79-3.14,13C78.43,32,70.29,35.29,63.17,39.09c-1.71.91-.19,3.5,1.51,2.59Z"/><path class="cls-1" d="M63.52,38.67A28.27,28.27,0,0,0,46.34,18.93c-1.79-.72-2.57,2.18-.8,2.89A25.16,25.16,0,0,1,60.62,39.46c.45,1.88,3.35,1.08,2.9-.79Z"/></g></g></svg>