<svg xmlns="http://www.w3.org/2000/svg" viewBox="0 0 1088.72 720"><defs><style>.cls-1{fill:#e2b354;}.cls-2{fill:#ddaf4a;}</style></defs><title>book</title><g id="Layer_2" data-name="Layer 2"><g id="home_-_section_two" data-name="home - section two"><path class="cls-1" d="M519.91,73q.9,20.11,2.36,40.2c.94,12.75,1.59,25.51,2.24,38.26q1.93,37.78,3.81,75.56c.65,12.77,1.25,25.55,1.93,38.32.36,6.49.89,13,1.32,19.46.41,6.16.75,12.34,1.07,18.5.65,12.46,1.29,24.92,1.75,37.39.48,12.74,1,25.49,1.27,38.24.13,6.31.19,12.61.32,18.91s.37,12.83.61,19.24c.47,12.58.81,25.15,1.09,37.74s.64,25.06.86,37.6c.24,13.12.45,26.25.78,39.37.64,25.35,2.3,50.65,3.39,76,.1,2.4.23,4.82.16,7.23a6,6,0,0,0,11.77,2.54,26.6,26.6,0,0,0,.25-5.79c0-1.52-.09-3.06-.16-4.58q-.19-4.62-.44-9.22-.48-9.81-1-19.61c-.64-12.75-1.28-25.5-1.72-38.26-.43-12.6-.51-25.21-.8-37.82-.3-13-.5-26-.86-39-.35-12.53-.55-25.07-1-37.6s-1-24.94-1.13-37.42c-.17-12.81-.61-25.6-1.06-38.4q-.66-18.56-1.58-37.11c-.65-12.66-1.35-25.32-2.25-38s-1.43-25.36-2.07-38q-1.93-38.25-3.86-76.51c-.65-12.71-1.25-25.42-2-38.13-.39-6.11-.88-12.22-1.3-18.34q-.64-9.58-1.16-19.18c-.22-4.06-.39-8.12-.57-12.18a6.08,6.08,0,0,0-6.32-5.71h-.2a6.09,6.09,0,0,0-5.5,6.31Z"/><path class="cls-1" d="M712.92,2.56c-6.65.94-13.24,2.15-19.84,3.35C687,7,680.79,8,674.67,9.1a145,145,0,0,0-19,4.54c-3.42,1.12-6.85,2.23-10.18,3.62q-4.57,1.92-9.14,3.91c-6,2.58-11.92,5.21-17.91,7.73s-11.67,5.15-17.41,8c-5.51,2.69-10.82,5.77-16.23,8.65a228.35,228.35,0,0,1-22,9.86q-13.12,5.3-26.32,10.4a5.86,5.86,0,0,0-3.08,3.43,6,6,0,0,0,3.68,7.68,6.36,6.36,0,0,0,4.6-.25c13.15-5.1,26.3-10.24,39.26-15.83,5.68-2.46,11.06-5.55,16.48-8.51s10.78-5.68,16.33-8.19c7-3.16,14.1-6.08,21.13-9.16,3.55-1.55,7.1-3.12,10.65-4.66s6.86-2.82,10.33-4.14L659.42,25c1.49-.49,3-.87,4.53-1.29,2.85-.77,5.73-1.42,8.62-2,6.67-1.24,13.35-2.37,20-3.52,6-1,12-2.35,18.09-3.2,6.41-.91,12.83-1.66,19.28-2.21,2.55-.21,5.09-.41,7.64-.59l4.26-.17c1.77-.07,3.55,0,5.32,0,2.94,0,5.88.26,8.8.55,6.58.65,13.14,1.44,19.67,2.42q19.17,2.86,38.22,6.38c4.73.87,9.46,1.76,14.18,2.7q9.36,2,18.67,4.15c6.1,1.41,12.16,3,18.25,4.46,3.22.79,6.47,1.48,9.71,2.21s6.38,1.56,9.56,2.41c5.94,1.58,11.81,3.53,17.62,5.53C914,47.05,926.06,51.19,938,55.65c6.08,2.26,12.07,4.65,18,7.32,2.89,1.31,5.75,2.67,8.63,4,2.63,1.2,5.31,2.32,8,3.45,8.7,3.69,17.46,7.2,26.34,10.44,9.21,3.37,18.45,6.81,28.08,8.74a5.77,5.77,0,0,0,4.32-1.42,6,6,0,0,0,.69-8.48l-1.15-1.05a6.15,6.15,0,0,0-3-1.07,158.07,158.07,0,0,1-17-5.23q-8.93-3.15-17.76-6.55c-5.9-2.29-11.73-4.73-17.56-7.2s-11.58-5.19-17.37-7.8c-11.45-5.18-23.44-9.16-35.28-13.32-12.38-4.35-24.73-8.81-37.41-12.19-6-1.58-12-2.79-18-4.24C861,19.46,854.53,17.82,848,16.32s-13-3-19.56-4.27-12.89-2.46-19.35-3.64S796.29,6.2,789.86,5.15s-12.57-2-18.88-2.88S758.22.58,751.8.25c-3.09-.16-6.23-.33-9.33-.21-3.64.15-7.28.37-10.92.62l-5.37.42c-4.43.39-8.87.86-13.26,1.48Z"/><path class="cls-1" d="M1017.56,86.87c1.18,13.64,2.33,27.28,3.53,40.92.55,6.3,1.27,12.58,2,18.86s1.43,12.37,2.08,18.56c2.73,25.78,4.8,51.65,7,77.48,1.07,12.55,1.4,25.17,1.86,37.75.47,12.91,1.16,25.81,1.41,38.72.25,12.73.33,25.46.51,38.19q.29,19.88.5,39.74.19,19.49.66,39c.31,13,.82,26,1.24,39s.73,25.74.87,38.61q.09,9.46.09,18.93c0,6.38.08,12.76,0,19.13-.15,11.75-.69,23.5-.95,35.24-.25,11.18.06,22.35-.27,33.53l-.06,1.13a6,6,0,0,0,1.08,3,6.14,6.14,0,0,0,3.82,2.45,6.06,6.06,0,0,0,4.57-1,5.74,5.74,0,0,0,2.45-3.83c.34-6.87.29-13.77.3-20.65,0-6.23,0-12.45.17-18.68.29-12.89.88-25.76.93-38.67.11-25.49-.34-51-1.2-76.46-.44-13-1-26.1-1.18-39.16s-.46-26.28-.58-39.42-.36-26.16-.51-39.23c-.13-12.73-.24-25.47-.59-38.19-.34-13-1-26.07-1.5-39.1-.23-6.14-.46-12.28-.77-18.41-.34-6.39-.85-12.77-1.4-19.14-2.2-25.57-4.28-51.16-7-76.67-1.25-11.57-2.79-23.09-3.79-34.68q-1.62-19-3.26-37.94a6,6,0,0,0-12,1Z"/><path class="cls-1" d="M698.75,573.79c-6.24.63-12.5,1.53-18.66,2.67a276.07,276.07,0,0,0-39,10c-6,2-11.94,4.22-17.87,6.45-6.14,2.31-12.34,4.53-18.34,7.16a183.4,183.4,0,0,0-18.62,9.14c-2.6,1.51-5.2,3.07-7.65,4.84q-4,2.9-8,5.87c-2.21,1.66-4.4,3.33-6.61,5a6.33,6.33,0,0,0-2.6,3.81,6.07,6.07,0,0,0,.86,4.53c1.71,2.61,5.71,3.72,8.33,1.74,4.9-3.69,9.79-7.4,14.77-11,2.08-1.5,4.29-2.86,6.51-4.15,2.54-1.48,5.11-2.85,7.72-4.21,5.27-2.5,10.6-4.86,16.06-7,6.08-2.35,12.19-4.68,18.32-6.91,12.07-4.38,24.29-8.48,36.86-11.21l6-1.3c5.14-1,10.28-1.91,15.47-2.53,6.1-.74,12.2-1.44,18.33-1.9,3.16-.23,6.3-.4,9.46-.53s6.19-.1,9.29-.09c5.52,0,11,.36,16.54.67,6.1.49,12.18,1.06,18.26,1.77,6.71.78,13.39,1.75,20.07,2.75,6.29.95,12.56,2.12,18.8,3.31s12.33,2.43,18.43,3.94q14.55,3.57,28.68,8.46c3,1.19,5.93,2.4,8.87,3.71,2.69,1.2,5.34,2.48,8,3.78,5.77,2.86,11.52,5.77,17.39,8.41,12,5.4,24.13,10.73,36.4,15.57s24.48,9.18,36.93,13.13c6,1.92,12.18,3.53,18.34,5,3,.74,6.07,1.46,9.12,2.09s6.21,1.09,9.34,1.49a75.63,75.63,0,0,0,15.7.56,80.85,80.85,0,0,0,8-1,81.69,81.69,0,0,0,8.58-2,43.82,43.82,0,0,0,14.74-6.88,30.7,30.7,0,0,0,3.58-3.26,24.87,24.87,0,0,0,3.37-4.87,48.16,48.16,0,0,0,3.31-8.28A5.74,5.74,0,0,0,1051,628a6,6,0,0,0-8.33-1.74l-1.17,1a6,6,0,0,0-1.43,2.81c0,.08,0,.16-.08.24a35.37,35.37,0,0,1-2.93,6.3,22,22,0,0,1-2.35,2.47,33.78,33.78,0,0,1-4.09,2.62A81,81,0,0,1,1017,646a65.18,65.18,0,0,1-7.75.88c-2.89.14-5.73.17-8.61,0A143.9,143.9,0,0,1,986,644.68c-4.93-1-9.86-2.26-14.73-3.56-9.6-2.58-19-5.75-28.41-9-5.8-2.12-11.6-4.27-17.34-6.54-5.9-2.32-11.72-4.8-17.53-7.32-6.25-2.71-12.49-5.43-18.71-8.22-5.83-2.62-11.53-5.53-17.25-8.36a158.65,158.65,0,0,0-18.2-7.92c-6.28-2.19-12.59-4.16-19-6-12.54-3.69-25.44-6.14-38.3-8.45s-25.78-4.07-38.76-5.36c-6.52-.65-13.08-1.2-19.63-1.43s-13.32-.43-20-.16c-3.82.16-7.62.43-11.42.76-2.68.23-5.35.49-8,.75Z"/><path class="cls-1" d="M601.89,680.23a6,6,0,0,0-1.45,8.39,6.51,6.51,0,0,0,3.83,2.45,66.26,66.26,0,0,0,9.3,1.74c3.24.47,6.49.91,9.74,1.37,6.14.87,12.27,1.59,18.44,2.14,6.54.6,13.09,1.2,19.63,1.7,6.27.49,12.55.89,18.83,1.29,26.53,1.73,53.12,1.78,79.69,1.84,26.07.05,52.14-.51,78.22-.55q9.71,0,19.41-.12c6.39-.06,12.78-.26,19.17-.34s12.51-.07,18.77-.17c6.74-.11,13.49-.31,20.23-.44,12.5-.26,25-.41,37.48-.66q19.23-.37,38.46-.54c13.09-.12,26.15-.63,39.21-1.39,13.23-.77,26.48-1.27,39.72-1.94l7.37-.38a6,6,0,1,0-1-12c-13.81.73-27.64,1.3-41.45,2-13.25.7-26.48,1.42-39.74,1.63-12.82.2-25.65.26-38.47.5-12.54.24-25.09.43-37.63.66-6.39.11-12.76.33-19.14.43-6.64.12-13.29.18-19.93.23-12.74.1-25.49.44-38.24.49-26.1.1-52.21.5-78.32.55-12.26,0-24.52,0-36.77-.16q-17.85-.22-35.66-1c-12.61-.65-25.22-1.46-37.79-2.61-6.57-.59-13.16-1.11-19.71-1.88-6.22-.73-12.42-1.67-18.62-2.57a63.31,63.31,0,0,1-9-1.69,3.94,3.94,0,0,0-1.5-.13,6.47,6.47,0,0,0-3.07,1.13Z"/><path class="cls-1" d="M497,687.7a6.06,6.06,0,0,0-2.44,3.82,5.79,5.79,0,0,0,1,4.58,104.54,104.54,0,0,0,7.3,7.73,54.71,54.71,0,0,0,8.32,6.26,66,66,0,0,0,7.9,4.26c1.41.61,2.81,1.22,4.24,1.77,2.06.78,4.14,1.43,6.25,2.08a51.66,51.66,0,0,0,8.82,1.61c.81.1,1.65.08,2.47.12,1.1.06,2.15.08,3.24.07,1.49,0,3-.11,4.46-.26,6.44-.59,12.84-1.51,19.21-2.63a75.2,75.2,0,0,0,10.77-2.74,46.36,46.36,0,0,0,4.91-2.13c2.07-1,4.1-2.1,6.06-3.25,4.49-2.65,7.9-6.82,10.65-11.18,1.63-2.6,3.2-5.22,4.71-7.89,1.61-2.87-.05-6.69-2.86-8a6.08,6.08,0,0,0-4.68-.21,6.32,6.32,0,0,0-3.34,3.06c-1.32,2.36-2.7,4.67-4.12,7a46.83,46.83,0,0,1-4.16,5.15,31.48,31.48,0,0,1-4.61,3.14c-1.38.7-2.76,1.38-4.17,2a45.24,45.24,0,0,1-8.12,2.62c-4.38.91-8.79,1.61-13.23,2.19A122.36,122.36,0,0,1,541.79,708a47.91,47.91,0,0,1-5.59-.68,60.36,60.36,0,0,1-6.27-1.54c-2.26-.87-4.5-1.74-6.68-2.79s-4.28-2.22-6.36-3.46c-1.61-1.1-3.16-2.24-4.67-3.49a57.67,57.67,0,0,1-4.39-4.17c-.82-.91-1.63-1.83-2.46-2.74-.34-.38-.69-.76-1-1.13a6,6,0,0,0-2.78-1.32,6.14,6.14,0,0,0-1.6-.08,6.05,6.05,0,0,0-3,1.08Z"/><path class="cls-1" d="M26.61,713.27a6.09,6.09,0,0,0,2.12,4.1,6.35,6.35,0,0,0,4.4,1.39c3-.07,6.11-.26,9.17-.38,3.42-.13,6.83-.24,10.26-.35,6.07-.2,12.15-.45,18.23-.6,13.14-.32,26.29-.26,39.44-.28,12.51,0,25,.06,37.52,0,12.81-.09,25.62-.46,38.43-.83q19.5-.57,39-1.25c12.68-.44,25.34-1.09,38-1.49,12.88-.41,25.76-.69,38.64-.91s25.66-.56,38.47-1.17c25.67-1.24,51.26-3.69,76.89-5.54,12.53-.91,25.05-1.92,37.58-2.75,13-.85,25.88-2,38.77-3.44,2.77-.3,5.52-.63,8.28-1a6,6,0,0,0-1-12q-19.95,2.36-40,3.9c-12.48,1-25,1.71-37.46,2.69-12.79,1-25.59,1.9-38.37,3s-25.54,2.06-38.33,2.76c-13.1.71-26.22,1.15-39.34,1.43-12.51.26-25,.41-37.51.78-6.34.2-12.67.39-19,.67s-12.83.6-19.26.82c-13,.43-26.05.9-39.09,1.28s-25.92.82-38.88,1-25.69.13-38.53.1c-12.52,0-25-.08-37.57.12-12.92.21-25.85.68-38.77,1.21-2.19.09-4.4.22-6.6.27l-.31,0c-3.12.27-5.43,3.48-5.17,6.49Z"/><path class="cls-1" d="M5.43,164a6.06,6.06,0,0,0-4,2.15c-.27.44-.55.88-.83,1.32a6.13,6.13,0,0,0-.51,3.16c-.15,7-.14,13.93.23,20.9.34,6.35.61,12.71,1,19.07s.64,12.6,1.08,18.89S3.3,242,3.82,248.3,4.64,260.75,5.07,267s1,12.57,1.46,18.86c.48,6.47.73,12.94,1,19.43.24,6.24.52,12.49.75,18.74s.33,12.38.24,18.58c-.11,6.73-.22,13.46-.24,20.18,0,6.39,0,12.77,0,19.15s-.27,13-.39,19.5c-.24,12.77-.21,25.56,0,38.32.09,6.31.32,12.61.45,18.92.15,6.75.25,13.5.38,20.26.12,6.5.32,13,.52,19.5.2,6.19.56,12.37.74,18.56.38,13.41.76,26.82,1.28,40.23.49,12.55.8,25.11,1.1,37.66.17,6.71.34,13.41.36,20.11,0,6.42,0,12.85-.05,19.27,0,12.82-.41,25.64-.62,38.46-.1,6.23-.42,12.46.09,18.68a63.1,63.1,0,0,0,1.39,8.19c.67,3.09,1.15,6.23,2,9.28a10.15,10.15,0,0,0,2.11,3.83,10.69,10.69,0,0,0,3,2.43,13.23,13.23,0,0,0,3.19,1.28,23.23,23.23,0,0,0,6.09.89l1.61.05a6,6,0,0,0,2.87-1.11,6,6,0,0,0,1.37-8.4,5.72,5.72,0,0,0-3.92-2.42,25.35,25.35,0,0,1-4.93-.58c-.07-.22-.15-.44-.22-.67-.5-2.35-.93-4.72-1.44-7.06a55.65,55.65,0,0,1-1.24-8.5c-.36-6.25-.06-12.52.05-18.76.21-12.58.56-25.15.6-37.73,0-6.83.05-13.66,0-20.49,0-6.23-.2-12.46-.36-18.69-.35-13-.66-26-1.16-39Q22.68,544,22.34,534c-.21-6.3-.27-12.62-.5-18.92-.49-13.23-1-26.45-1.29-39.69-.12-6.37-.21-12.74-.35-19.11-.14-6.59-.36-13.19-.45-19.79q-.26-19.07.1-38.16c.12-6.5.32-13,.36-19.49s0-13.08,0-19.62c0-6.2.19-12.4.24-18.6.05-6.64-.07-13.26-.32-19.89-.22-5.89-.49-11.78-.71-17.66-.24-6.47-.46-12.95-1-19.4s-1.05-13.13-1.51-19.7c-.44-6.21-.75-12.42-1.27-18.62-.49-5.91-1-11.82-1.36-17.73-.43-6.34-.71-12.69-1.08-19-.35-6.19-.62-12.39-.94-18.59-.36-6.86-.37-13.74-.21-20.61a5.74,5.74,0,0,0-2.16-4A6.06,6.06,0,0,0,5.57,164l-.14,0ZM25.55,704.16l.36.23-.36-.23Zm.95.36.06.1-.06-.1Zm.55.82.29.3-.29-.3Z"/><path class="cls-1" d="M422.34,42.78c-2.75.36-5.48.86-8.22,1.29-3,.47-6,.88-9,1.3-6,.84-12,1.74-18,2.66-5.83.9-11.65,1.78-17.44,2.88-11.72,2.23-23.15,5.82-34.58,9.17-11.74,3.43-23.55,6.55-35.31,9.9-12,3.41-24,6.57-36,10-5.85,1.65-11.69,3.29-17.49,5.11C240.19,87,234.17,89,228.12,90.9c-11.44,3.63-22.81,7.5-34.25,11.17-5.93,1.89-11.9,3.66-17.88,5.42-5.75,1.68-11.49,3.38-17.28,5s-11.87,3.09-17.79,4.69c-5.77,1.56-11.53,3.17-17.32,4.65-11.73,3-23.52,5.69-35.34,8.24a275.26,275.26,0,0,1-35.87,5.51c-2.94.23-5.89.43-8.84.55-1.72.06-3.43.12-5.15.16l-2.27.07-1.11.05a7.89,7.89,0,0,0-3.53.74,5.83,5.83,0,0,0-2.93,3.45,6,6,0,0,0,3.83,7.6,5.59,5.59,0,0,0,2.82.2c5.32-.22,10.63-.36,15.94-.75,6.38-.48,12.75-1.06,19.07-2,12-1.84,23.86-4.43,35.7-7.13s23.48-5.69,35.13-8.9c5.88-1.61,11.79-3.1,17.67-4.67s11.65-3.24,17.44-4.94c5.94-1.74,11.87-3.47,17.76-5.32,5.73-1.81,11.43-3.69,17.12-5.58s11.59-3.84,17.41-5.69,11.69-3.8,17.55-5.67c11.78-3.74,23.72-7,35.66-10.23s23.71-6.54,35.56-9.82c5.93-1.65,11.87-3.33,17.78-5s11.52-3.47,17.32-5.06,11.45-3.13,17.26-4.34c6-1.25,12-2.19,18-3.1q12.84-1.95,25.72-3.77c4.2-.6,8.38-1.37,12.59-1.93,4-.53,8.07-.85,12.11-1.17a157,157,0,0,1,18.52-.74A139.88,139.88,0,0,1,476,54.84a64.46,64.46,0,0,1,11.09,3.62,50.6,50.6,0,0,1,6.66,4c2.08,1.49,4.07,3,6,4.68,2.17,1.91,4.34,3.81,6.55,5.67,1.48,1.27,3,2.47,4.55,3.68a57.6,57.6,0,0,0,9.43,5.71,6.51,6.51,0,0,0,4.54.83,6,6,0,0,0,4.63-7.15,5.81,5.81,0,0,0-2.62-3.79,69.74,69.74,0,0,1-9.14-5.48c-1.12-.8-2.17-1.7-3.25-2.55-4.69-4-9.25-8.17-14.28-11.78-1.12-.8-2.32-1.53-3.52-2.22a68.14,68.14,0,0,0-8.55-4.16,59.31,59.31,0,0,0-10.9-3,145.62,145.62,0,0,0-18.85-2.39,142.53,142.53,0,0,0-17.77.56c-2.78.2-5.57.41-8.35.65-3.31.28-6.62.62-9.92,1.05ZM515.2,64.63l.32.27-.32-.27ZM35.89,148.2l-.26.09h-.16l.42-.1Z"/><path class="cls-1" d="M39,139.37a6,6,0,0,0-3.73,2.57,6.21,6.21,0,0,0-.85,4.6c1.1,6.82,2.24,13.63,2.86,20.51.46,5.82.79,11.65,1.2,17.48s.89,11.87,1.25,17.81c.33,5.48.75,11,.93,16.46.2,6,.49,12,1,18l.27,3.13c.51,6.55,1,13.1,1.83,19.62.72,5.89,1.36,11.79,1.88,17.7s1.08,12,1.77,18c.34,3,.68,6,1,8.95.11,1.17.09,2.44.31,3.63l0,.39a6,6,0,0,0,.11,1.41l0,.16c.12,1.54.25,3.08.38,4.62.28,3.35.58,6.71.86,10.06C51,336,51.71,347.54,52.4,359.08c.34,5.84.8,11.67,1.08,17.5s.69,11.58,1,17.37c.64,11.55,1.15,23.11,1.72,34.65.59,11.94.75,23.89,1.19,35.82q.31,8.56.56,17.13c.18,6,.14,12,.33,18.05.16,5.56.34,11.12.37,16.68,0,5.4.1,10.8.28,16.2q.59,17.91.68,35.84c0,6.19.21,12.37.13,18.56-.08,5.37-.22,10.73-.11,16.1.25,11.38.17,22.77.59,34.15.43,11.8.86,23.6.77,35.4,0,6.21-.31,12.42-.58,18.62-.12,2.76-.27,5.52-.35,8.29,0,1,0,2.07,0,3.1,0,.52,0,1.05,0,1.57,0,.73.11,1.47.18,2.2a6,6,0,0,0,1.57,3.17,5.93,5.93,0,0,0,2.57,1.69,5.79,5.79,0,0,0,4.66-.36.71.71,0,0,0,.14-.1l1.27-.87A6,6,0,0,0,72,703.21c0-1.27,0-2.53.08-3.79.07-2.43.21-4.85.31-7.27.25-5.46.47-10.93.56-16.4.21-11.77-.23-23.53-.64-35.3-.39-11.4-.35-22.81-.61-34.21-.13-5.35-.1-10.68,0-16,.1-6.14,0-12.27-.07-18.4-.1-12-.17-24-.6-35.93-.39-10.94-.26-21.87-.65-32.81-.22-6-.22-12-.35-17.94-.12-5.77-.35-11.54-.54-17.3-.39-11.94-.73-23.87-1.17-35.8-.22-5.91-.58-11.81-.84-17.71q-.37-8.56-.86-17.13-1-17.4-2.08-34.79c-.77-11.9-1.42-23.81-2.34-35.7-.47-6-1-11.93-1.5-17.9h0c-.05-.68-.11-1.36-.16-2a6.8,6.8,0,0,0-.09-1.1c-.21-2.45-.42-4.89-.68-7.34-.47-4.26-1-8.52-1.41-12.78-.44-4.43-.82-8.85-1.21-13.28-.79-8.84-2.08-17.63-2.83-26.47l0,.31q-.54-6.66-1.09-13.32c-.39-5.34-.47-10.68-.72-16-.26-5.52-.67-11-1-16.56-.37-6-.89-12.06-1.29-18.09-.41-6.44-.78-12.88-1.39-19.3S47.18,150.22,46.17,144a6,6,0,0,0-6.47-4.69,4.36,4.36,0,0,0-.71.11Zm3,101.38c0,.18,0,.36,0,.55,0-.19,0-.37,0-.55Zm12.41,5.58c0,.36.05.71.08,1.06l-.08-1.06ZM50,323.14c0,.17,0,.34,0,.51,0-.17,0-.34,0-.51Z"/><path class="cls-1" d="M2.17,165.82a6.07,6.07,0,0,0,5.7,6.32c2.84.11,5.67.21,8.51.21,2.41,0,4.81-.08,7.21-.1,4.89,0,9.78.46,14.66.7a6,6,0,1,0,.63-12c-4.81-.24-9.61-.69-14.44-.7-2.35,0-4.7.09-7,.09-3,0-5.92-.09-8.89-.2a6.26,6.26,0,0,0-.75,0,6.07,6.07,0,0,0-5.58,5.68Z"/><path class="cls-1" d="M360.25,628.28c-6.92.91-13.82,2-20.72,3.07-6.43,1-12.89,2-19.28,3.24-12.95,2.48-25.88,5.22-38.63,8.62-6.48,1.74-12.94,3.52-19.38,5.41-6.05,1.77-12.08,3.66-18.13,5.51q-18.63,5.72-37.36,11.16c-12.26,3.55-24.46,7.27-36.71,10.85-9.52,2.76-19,5.46-28.63,8-9.28,2.46-18.6,4.8-28,6.56-4.07.65-8.14,1.25-12.24,1.63a104.06,104.06,0,0,1-17.38.44c-2.86-.36-5.66-.92-8.48-1.51A6,6,0,0,0,72.58,703c1.89.4,3.78.78,5.69,1.12a65.5,65.5,0,0,0,7.14.79,82.24,82.24,0,0,0,8.6-.06c3-.1,6.07-.31,9.09-.64,6.81-.74,13.57-1.89,20.28-3.28,6.43-1.34,12.81-3,19.16-4.65s12.39-3.31,18.57-5c12.15-3.39,24.19-7.18,36.3-10.73,12.42-3.63,24.86-7.21,37.25-10.95,12.15-3.68,24.24-7.6,36.47-11,12.52-3.51,25.1-6.78,37.82-9.49q7.49-1.59,15-3c12.63-2.15,25.28-4.23,38-5.91,6-.79,12-1.43,18-2q9.74-.93,19.48-1.4c9.71-.47,19.41-.87,29.13-.92,9-.05,17.94.15,26.89.69,2.38.26,4.75.54,7.11.93,3.08.52,6.13,1.13,9.19,1.77,5.35,1.11,10.67,2.41,16,3.72q8.54,2.1,17,4.58c5,1.45,9.84,3.18,14.7,5,4.35,1.71,8.67,3.46,12.92,5.4,2,.9,3.91,1.87,5.85,2.82s4.08,2.1,6.21,2.92l1.45.53a6,6,0,0,0,7.08-7.66,5.75,5.75,0,0,0-3-3.54c-2.78-1.06-5.42-2.54-8.09-3.84Q537.42,647,533,645c-6.26-2.72-12.72-5-19.17-7.22-6-2.08-12.19-3.73-18.36-5.34-6.37-1.66-12.79-3.14-19.22-4.6-2.76-.63-5.53-1.25-8.32-1.72l-5.16-.86c-1.8-.3-3.65-.41-5.46-.61-6.82-.76-13.75-.73-20.6-.85-13-.22-26,.31-39,.93-4.85.23-9.71.57-14.55,1-7.65.66-15.28,1.53-22.88,2.54Zm-36.77,17.85-1,.17,1-.17Z"/><path class="cls-1" d="M1054.6,107.11c.53,12.84,1.35,25.69,2.64,38.47q.93,9.06,2,18.11c.75,6.21,1.19,12.45,1.73,18.68.52,6.08,1,12.17,1.44,18.26.42,6.3.56,12.61.77,18.92s.55,12.54.79,18.82.35,12.54.45,18.81c.2,12.92.37,25.84.76,38.76.38,12.63.68,25.26,1,37.88s.84,25.17,1.12,37.76c.14,6.27.32,12.53.65,18.8s.67,12.68.91,19c.47,12.52.64,25,1.1,37.55.23,6.21.39,12.42.62,18.62.25,6.46.54,12.91.73,19.37.38,13,.87,26,1.38,39,.5,12.76.78,25.53,1.32,38.28s1.27,25.41,1.72,38.11c.23,6.5.47,13,.62,19.49.16,6.27.16,12.55.17,18.83,0,7.15,0,14.3,0,21.45,0,3.64.05,7.27.07,10.91a91.36,91.36,0,0,1-.23,9.51,17.74,17.74,0,0,1-.76,2.77c-.12.26-.24.52-.38.78a5.51,5.51,0,0,0-.57.5,6.09,6.09,0,0,0-1.77,4.25,6,6,0,0,0,1.76,4.26l1.21,1a6.1,6.1,0,0,0,3,.82c2.4.26,4.54-1.31,5.82-3.17a16.22,16.22,0,0,0,1.32-2.38,24.94,24.94,0,0,0,1.81-4.86,42.63,42.63,0,0,0,.8-9.9c0-6.25-.07-12.51-.11-18.76-.07-12.65.09-25.3-.22-37.94s-.92-25.24-1.5-37.86q-.47-9.93-.89-19.87c-.27-6.36-.4-12.73-.62-19.09q-1.29-38.4-2.77-76.8-.72-18.81-1.12-37.65c-.26-12.35-.88-24.67-1.51-37-.64-12.62-.76-25.25-1.14-37.87s-.73-25.25-1.12-37.88c-.4-13-.77-26-1-39-.2-12.41-.22-24.85-.76-37.25-.28-6.32-.59-12.62-.79-18.95s-.34-12.73-.82-19.07-1-12.7-1.53-19-1-12.44-1.78-18.64q-3.27-27.26-4.42-54.71a6.1,6.1,0,0,0-6-6l-.49,0a6.05,6.05,0,0,0-5.54,6Z"/><path class="cls-1" d="M1026.72,96.41c-.53.06-1.07.13-1.6.21a5.91,5.91,0,0,0-2.66,1.54,6,6,0,0,0-1.77,4.25,6.1,6.1,0,0,0,1.76,4.27,5.68,5.68,0,0,0,4.25,1.76c9.36-1.23,18.73-2.66,28.2-2.29l.35.26a5.77,5.77,0,0,0,4.64.62,6,6,0,0,0,4.21-7.4q-.28-.72-.6-1.44a6,6,0,0,0-2.15-2.16c-2.82-2.18-6.48-1.92-9.84-1.92-2.52,0-5,0-7.53.21l-1.78.14c-5.17.44-10.34,1.26-15.48,2Z"/><path class="cls-1" d="M390.14,123.49c-6.21,1.45-12.37,3.12-18.48,5-3.44,1-6.85,2.11-10.25,3.25-3.07,1-6.11,2.18-9.16,3.28-5.9,2.12-11.89,4-17.73,6.24-6.13,2.4-12.17,5.05-18.23,7.63-6.26,2.65-12.56,5.22-18.75,8l-5.68,2.57c-5.33,2.23-10.7,4.26-16.23,6q-9,2.76-18.08,5.44c-6,1.76-12,3.26-18,4.84s-12,3.24-18,5S209.7,184.18,203.8,186,192,189.66,186,191c-5.86,1.3-11.79,2.19-17.71,3.17s-12.09,2-18.15,3c-2.8.45-5.59.87-8.39,1.28-3.08.41-6.16.82-9.26,1.05a54.75,54.75,0,0,1-9.41-.07c-2.35-.36-4.63-.91-6.94-1.49A6,6,0,1,0,113,209.54c1.48.37,3,.75,4.43,1.07,1.84.38,3.7.61,5.56.82a45.87,45.87,0,0,0,8.53.16c6.49-.48,12.95-1.46,19.38-2.46,6-.94,12.07-1.94,18.1-3,5.85-1,11.74-1.79,17.54-3,6.13-1.28,12.11-3.07,18.1-4.88,5.8-1.74,11.59-3.49,17.39-5.21q9-2.65,18-5.07c6.14-1.65,12.32-3.17,18.44-4.89,4.12-1.15,8.21-2.43,12.31-3.67s8.45-2.53,12.65-3.88c8.75-2.81,17.05-6.92,25.45-10.63,5.88-2.49,11.78-5,17.66-7.47,5.69-2.43,11.41-4.86,17.27-6.87,6.25-2.14,12.49-4.3,18.71-6.53,5.89-2.11,11.89-3.92,17.91-5.6,3.66-1,7.31-2.06,11-2.92,3.26-.76,6.53-1.33,9.83-1.82,4.51-.43,9-.75,13.55-.94,1.95-.08,3.92-.18,5.88-.11,2.22.08,4.4.23,6.61.43q4.38.61,8.75,1.32a59.08,59.08,0,0,1,9.32,1.93c3.11,1,6.56-1.23,7.38-4.25a6.12,6.12,0,0,0-.64-4.64,6.28,6.28,0,0,0-3.62-2.74,60.33,60.33,0,0,0-9.05-1.88c-3.11-.54-6.25-1-9.37-1.42a66.42,66.42,0,0,0-9.95-.8c-3.22,0-6.43.11-9.64.31-2,.13-4,.27-6,.44a101.47,101.47,0,0,0-14.33,2.12Z"/><path class="cls-1" d="M387.3,212.29c-3.05.59-6.1,1.2-9.13,1.89s-6.19,1.38-9.2,2.33l-5.06,1.59c-1.66.52-3.29,1.19-4.92,1.78-3,1.08-5.95,2.25-8.94,3.33-6.19,2.23-12.5,4.13-18.76,6.16-6.09,2-12.12,4.13-18.21,6.11-5.86,1.91-11.78,3.64-17.62,5.61-6.17,2.08-12.28,4.36-18.47,6.41-6.37,2.11-12.75,4.2-19.1,6.36-5.84,2-11.57,4.3-17.49,6-6.52,1.9-13.08,3.65-19.67,5.34-4.88,1.25-9.79,2.49-14.73,3.54q-8.38,1.79-16.84,3.18a148.77,148.77,0,0,1-15.35,1.2c-5.7.14-11.4.16-17.1.23-10.55.13-21.1.31-31.6-.91-2-.28-4-.59-6.07-1a6.33,6.33,0,0,0-4.63.64,6,6,0,0,0-2.11,8.25,5.83,5.83,0,0,0,3.62,2.74,146,146,0,0,0,20,2.22c6,.25,11.93.18,17.89.1,12.75-.18,25.63.22,38.25-1.86,6.37-1.05,12.75-2.15,19-3.63,6.44-1.52,12.85-3.14,19.26-4.78s12.74-3.52,19-5.57c2.92-.95,5.79-2,8.67-3.08s6-2.1,9.07-3.13c6.29-2.14,12.62-4.15,18.89-6.33,5.86-2,11.68-4.13,17.59-6s12.11-3.74,18.1-5.78c6.18-2.1,12.34-4.22,18.54-6.2,4.93-1.57,9.84-3.15,14.7-4.9,4.53-1.63,9-3.49,13.56-4.94,2.57-.81,5.13-1.56,7.73-2.25,2.22-.59,4.47-1.08,6.71-1.59,4.6-1.06,9.26-1.88,13.92-2.64,5.19-.61,10.38-1.1,15.61-1.26,3.12-.11,6.23-.17,9.36-.19,2.62,0,5.25.18,7.87.35a74.73,74.73,0,0,1,13.55,2.93c3.11,1,6.57-1.22,7.38-4.25a6.09,6.09,0,0,0-.64-4.63,6.21,6.21,0,0,0-3.61-2.74,79.61,79.61,0,0,0-19.89-3.56,166,166,0,0,0-19.57.33c-1.32.06-2.63.16-3.95.27a150.6,150.6,0,0,0-15.68,2.25Z"/><path class="cls-1" d="M423.67,295.7c-1.48.12-3,.26-4.46.47a35.66,35.66,0,0,0-4.57.81l-2.6.71c-.85.23-1.72.59-2.58.89-1.57.54-3.14,1.15-4.7,1.69-3.24,1.1-6.46,1.91-9.68,2.85s-6.29,2-9.42,2.87-6,1.6-9.05,2.54c-3.2,1-6.41,2.13-9.61,3.09s-6.58,1.95-9.87,3c-3,.94-6.09,2.19-9.09,2.91-3.31.79-6.6,1.45-9.88,2.05-2.44.45-4.89.88-7.3,1.15q-4.1.46-8.13.6a37.25,37.25,0,0,1-7-.89c-2.53-.58-5-1.27-7.55-1.91-4.66-1.2-9.33-2.34-13.64-4.65-.83-.49-1.64-1-2.44-1.56a1.78,1.78,0,0,0-2.18,0,6.25,6.25,0,0,0-2.06,2.7,9.65,9.65,0,0,0-.81,4,3.76,3.76,0,0,0,.94,2.74,36.37,36.37,0,0,0,8.25,4.32,73.81,73.81,0,0,0,7.83,2.29c5.63,1.42,11.18,3.34,17.21,3.16a78.1,78.1,0,0,0,9.2-.7c3.18-.49,6.37-1.05,9.57-1.63s6.42-1.39,9.66-2.33c1.5-.43,3-1,4.53-1.51s3.14-1,4.71-1.51c3.26-1,6.51-1.92,9.78-3,3-1,6.09-2,9.12-2.85s6.19-1.65,9.3-2.62,6.4-2,9.59-2.91c2.53-.7,5-1.42,7.6-2.29,2.37-.81,4.75-1.83,7.11-2.47,1.32-.36,2.61-.67,3.92-.94,1.11-.22,2.21-.35,3.31-.5a61.85,61.85,0,0,1,6.73-.5,43.4,43.4,0,0,1,7.14.87c1.4.29,2.77.63,4.15,1a25.81,25.81,0,0,1,3.37,1.26,21.38,21.38,0,0,1,5.25,4.13c1.12,1.25,3.17-.22,4.24-2.65a9.53,9.53,0,0,0,.81-4,4.05,4.05,0,0,0-.94-2.75,21.74,21.74,0,0,0-7.88-5.43,39.54,39.54,0,0,0-8.67-2.13c-.59-.11-1.19-.19-1.79-.26a38.87,38.87,0,0,0-7.4-.05Z"/><path class="cls-1" d="M315.72,414.28c1.47-.12,3-.26,4.45-.47a35.81,35.81,0,0,0,4.58-.81l2.59-.71c.86-.24,1.72-.6,2.58-.89,1.57-.54,3.14-1.15,4.7-1.69,3.24-1.1,6.46-1.92,9.68-2.85s6.29-2,9.42-2.87,6-1.6,9-2.54c3.2-1,6.42-2.14,9.61-3.09s6.58-1.95,9.87-3c3-.94,6.09-2.18,9.09-2.9,3.31-.79,6.6-1.45,9.89-2.05,2.43-.45,4.88-.89,7.29-1.16q4.1-.45,8.13-.59a37.24,37.24,0,0,1,7,.88c2.53.59,5,1.28,7.55,1.92,4.66,1.19,9.33,2.34,13.65,4.65.82.49,1.63,1,2.43,1.56a1.76,1.76,0,0,0,2.18,0,6.08,6.08,0,0,0,2.06-2.69,9.49,9.49,0,0,0,.81-4,3.76,3.76,0,0,0-.94-2.75,36.73,36.73,0,0,0-8.25-4.31,74.33,74.33,0,0,0-7.82-2.29c-5.64-1.42-11.19-3.34-17.22-3.16a77.94,77.94,0,0,0-9.19.7c-3.19.48-6.38,1.05-9.58,1.63s-6.41,1.39-9.66,2.33c-1.5.43-3,1-4.53,1.5s-3.14,1-4.71,1.52c-3.26,1-6.51,1.92-9.78,3-3,1-6.09,2-9.12,2.86s-6.19,1.65-9.3,2.62-6.4,2-9.59,2.9c-2.53.71-5.05,1.43-7.6,2.3-2.37.81-4.75,1.82-7.11,2.47-1.31.36-2.61.67-3.92.94-1.11.22-2.21.35-3.31.5a61.67,61.67,0,0,1-6.73.5,44.51,44.51,0,0,1-7.14-.87c-1.39-.29-2.77-.63-4.15-1a27.34,27.34,0,0,1-3.37-1.26,21.38,21.38,0,0,1-5.25-4.13c-1.12-1.25-3.17.22-4.24,2.65a9.69,9.69,0,0,0-.81,4,4.12,4.12,0,0,0,.94,2.75,21.54,21.54,0,0,0,7.89,5.42,39.47,39.47,0,0,0,8.66,2.14c.59.11,1.19.19,1.79.26a39,39,0,0,0,7.41,0Z"/><path class="cls-1" d="M389.65,460.85c-3.42.44-6.84.93-10.21,1.66a150.81,150.81,0,0,0-18.45,5c-7.83,2.75-15.55,5.77-23.26,8.86-7.38,3-14.64,6.24-21.93,9.44-5.71,2.35-11.44,4.67-17.26,6.76-3.28,1.18-6.55,2.35-9.85,3.44s-6.85,2.14-10.31,3.15c-5.84,1.68-11.79,3.1-17.7,4.53-3.47.83-6.93,1.66-10.42,2.42-3.13.69-6.28,1.26-9.44,1.84-4.64.85-9.34,1.45-14,2.14-3.93.59-7.87,1.15-11.81,1.72-5.7.72-11.39,1.3-17.13,1.73-5.53.41-11.11.61-16.66.75s-10.87.17-16.3.08c-6.65-.11-13.29-.3-19.92-1a81,81,0,0,1-15.6-4.05,5.91,5.91,0,0,0-4.64.63,6,6,0,0,0-2.1,8.25,6.31,6.31,0,0,0,3.61,2.75c1.86.67,3.75,1.25,5.64,1.85,1.57.5,3.21.83,4.81,1.23,5.62,1.39,11.45,1.68,17.2,2.07,3,.21,6.08.22,9.11.27s6.27.08,9.41.07c6.47,0,12.93-.24,19.39-.53,6.17-.29,12.37-.68,18.49-1.46,13.5-1.73,27-3.68,40.37-6.13,3-.56,6-1.3,9-2q5.18-1.24,10.34-2.54c3.31-.82,6.61-1.68,9.91-2.54,2.74-.71,5.51-1.48,8.2-2.37,4.05-1.33,8.08-2.68,12.09-4.12s8-3,12-4.51c7.38-2.83,14.57-6.16,21.81-9.35,8.64-3.61,17.31-7.22,26.14-10.33,4.85-1.71,9.72-3.3,14.7-4.6,4.58-1.19,9.2-2.08,13.87-2.9,3.54-.45,7.07-.85,10.64-1,4.35-.25,8.7-.4,13.06-.52,4.15-.11,8.34-.22,12.5-.09,4,.12,8,.63,12,.58a6,6,0,0,0-.07-12c-3,0-6-.28-9-.46s-6-.19-9-.15c-6.69.1-13.38.29-20.07.67-1,.06-2,.13-3,.22-2,.17-4.05.4-6.07.67Z"/><path class="cls-1" d="M361.27,559.94c-6.37,1.31-12.71,2.72-19,4.43s-12.39,3.51-18.6,5.23c-12.84,3.57-25.77,6.76-38.58,10.45-5.78,1.66-11.52,3.47-17.25,5.29-3,.94-5.93,1.93-8.89,2.92-2.51.84-5,1.73-7.56,2.45-5.81,1.65-11.62,3.21-17.52,4.47-3.11.66-6.22,1.26-9.35,1.83-2.35.43-4.72.77-7.08,1.11-3.13.32-6.24.64-9.37.85-3.46.23-6.92.39-10.38.54-6.67.3-13.34.35-20,.35s-13.2-.15-19.79-.31c-3.23-.08-6.45-.24-9.68-.37s-6.46-.59-9.66-1l-.23,0c-2.16-.3-4.33-.59-6.49-.91l-1.6-.21a6,6,0,0,0-5.14,9.09,5.73,5.73,0,0,0,3.61,2.75,204.45,204.45,0,0,0,21.24,2.4c6.84.28,13.69.44,20.54.55q19.91.36,39.79-1a176.4,176.4,0,0,0,20.33-2.78c6.05-1.11,12.12-2.39,18-4.07,3.39-1,6.75-2,10.1-3,3.15-1,6.28-2.07,9.42-3.12,6.19-2.06,12.46-3.92,18.72-5.79,12.23-3.66,24.66-6.6,37-10,12.49-3.47,24.89-7.27,37.6-9.9,4.31-.89,8.62-1.67,13-2.38a236.16,236.16,0,0,1,23.6-2.14c4.24-.14,8.49-.26,12.73,0s8.2.54,12.29,1q2.91.45,5.81,1c2.27.44,4.52,1,6.81,1.3l1.6.2a6,6,0,0,0,3-.84,6,6,0,0,0,2.11-8.25,5.74,5.74,0,0,0-3.61-2.74c-2.93-.39-5.79-1.14-8.69-1.65-3.54-.62-7.08-1.1-10.65-1.45a144.61,144.61,0,0,0-19-.67q-7.14.24-14.29.85a211.37,211.37,0,0,0-25,3.57Z"/><path class="cls-1" d="M682,82.1a161.35,161.35,0,0,0-18.33,6.46c-6.11,2.55-12.3,5.06-18.25,8q-5,2.47-9.94,5.18c-3.16,1.75-6.22,3.67-9.31,5.55s-6,3.42-9.14,5c-2.94,1.53-5.87,3.1-8.86,4.54-2.71,1.15-5.47,2.19-8.23,3.25a6.35,6.35,0,0,0-3.53,2.85,6,6,0,0,0,2.33,8.18,5.83,5.83,0,0,0,4.65.51c2.43-.94,4.87-1.85,7.28-2.85s5-2.22,7.38-3.47c4-2.06,8-4.1,12-6.32,4.11-2.31,8-4.93,12.15-7.21s8.45-4.45,12.79-6.47c8.24-3.62,16.51-7.31,25.09-10A195.36,195.36,0,0,1,706.29,89q7.08-.9,14.18-1.49a99.26,99.26,0,0,1,13.58-.13q7.62.42,15.24.81c4.38.22,8.74.58,13.1,1,12.39,1.47,24.8,2.84,37.06,5.2,6.35,1.23,12.63,2.77,18.89,4.43s12.54,4,18.75,6.09c3.6,1.21,7.23,2.35,10.83,3.58q5.64,1.94,11.18,4.1,7,2.84,14,5.55c4.25,1.63,8.53,3.19,12.77,4.85,11.82,5,23.38,10.63,35.52,14.87,3,1,6,2,9,2.85,3.25.89,6.55,1.52,9.86,2.11,6.26,1.11,12.65,1.55,18.84,3a6,6,0,1,0,2.95-11.67c-3.65-.87-7.38-1.35-11.09-1.87s-7.66-1.13-11.48-1.81c-7.18-1.28-14.09-3.86-20.9-6.4-7.64-3.09-15.13-6.48-22.66-9.83-8-3.56-16.29-6.41-24.45-9.56-5.62-2.27-11.21-4.65-16.94-6.62-6.28-2.15-12.61-4.2-18.91-6.33-3.12-1-6.24-2.1-9.37-3.12S820,86.81,816.89,86c-5.85-1.55-11.81-2.83-17.77-3.87-13.13-2.28-26.39-3.8-39.63-5.23-6.52-.71-13.09-.89-19.63-1.23-3.06-.17-6.11-.34-9.17-.46-3.35-.12-6.67,0-10,.22-1.46.09-2.91.2-4.37.32A183.37,183.37,0,0,0,682,82.1Zm190.35,23,.41.16-.41-.16Z"/><path class="cls-1" d="M703.52,502.33c-6.69.81-13.35,1.63-20,2.78-3.07.53-6.11,1.26-9.15,1.94s-6.25,1.39-9.36,2.17c-6,1.5-12.06,2.9-17.87,5-6.12,2.19-12,4.92-18.09,7.25-7.5,2.88-15.14,5.39-22.77,7.89a6,6,0,0,0,3.45,11.54c6.62-2.17,13.23-4.37,19.78-6.77q4.15-1.51,8.25-3.19c3-1.24,6-2.57,9.07-3.77a151.54,151.54,0,0,1,18.14-5.5c5.92-1.53,11.9-3,17.89-4.16,2.53-.51,5-1,7.59-1.43,6-.84,12-1.55,17.95-2.19s12.31-.9,18.47-1.15,12.55-.63,18.81-.56,12.64.45,18.94,1.11c5.76.79,11.52,1.69,17.26,2.61,6.24,1,12.47,2,18.63,3.45,5.79,1.32,11.57,2.76,17.29,4.33,2.87.79,5.75,1.56,8.59,2.45s5.5,1.83,8.21,2.87c3.6,1.56,7.18,3.17,10.81,4.65,4,1.63,8.06,3.22,12.1,4.81,5.6,2.27,11.13,4.69,16.71,7,3.56,1.49,7.15,2.91,10.79,4.21,2.89,1,5.82,2,8.71,3,6.07,2.17,12,4.57,18.16,6.56A158.63,158.63,0,0,0,930,563.6c2.73.53,5.47.95,8.2,1.39,3.15.5,6.29,1,9.45,1.48a6.43,6.43,0,0,0,4.62-.7,6,6,0,0,0,2-8.28,5.83,5.83,0,0,0-3.65-2.7c-11.89-1.72-23.76-3.68-35.29-7.09-5.61-1.66-11.05-3.91-16.53-6-2.88-1.07-5.8-2-8.72-3-2.54-.85-5-1.79-7.52-2.76-4.4-1.85-8.76-3.81-13.18-5.62-4.74-1.94-9.51-3.82-14.27-5.7-6.4-2.6-12.7-5.43-19.12-8-2.8-1.12-5.72-2-8.61-2.84q-4.75-1.38-9.56-2.62c-6-1.56-12-3.15-18.08-4.39-6.45-1.31-13-2.33-19.46-3.35s-12.8-2.06-19.26-2.6c-3.42-.29-6.84-.53-10.27-.66s-6.59-.11-9.88-.06c-6.34.1-12.67.45-19,.72-3.7.16-7.4.39-11.08.7q-3.64.32-7.28.75Zm62.09,11,.21,0,.11,0-.32,0Zm88.09,10.72.61.24-.61-.24Z"/><path class="cls-1" d="M507.9,682.27a6,6,0,0,0-.56,8.5,6.4,6.4,0,0,0,4.06,2c6.26,1,12.52,2.17,18.83,2.85a141.29,141.29,0,0,0,18.17.61A156.31,156.31,0,0,0,567,695c3-.42,6-.93,8.9-1.55a77.85,77.85,0,0,0,9.11-2.66c1.69-.57,3.35-1.22,5-1.8,1-.33,2-.65,2.93-1l1.54-.52a6.16,6.16,0,0,0,2.31-2,6,6,0,0,0-1.62-8.36,5.75,5.75,0,0,0-4.51-.93c-3.65,1.15-7.23,2.47-10.85,3.73a98.41,98.41,0,0,1-22.8,4,197.08,197.08,0,0,1-22,0c-7.62-.51-15.17-2-22.69-3.21a4.17,4.17,0,0,0-1,0,6.31,6.31,0,0,0-3.44,1.51Z"/><path class="cls-1" d="M712.4,630.37c-6.13,1.18-12.27,2.39-18.37,3.74S682,637,676,638.67s-11.91,3.32-17.84,5.08c-6.29,1.87-12.51,3.94-18.7,6.12-5,1.75-9.95,3.51-14.83,5.52-4.72,2-9.32,4.15-13.84,6.52s-8.84,4.79-13.13,7.4c-2.42,1.47-4.8,3-7.08,4.68a56.89,56.89,0,0,0-6,5.44,6.31,6.31,0,0,0-2,4.06,6,6,0,0,0,1.48,4.43c2.06,2.36,6.16,2.87,8.5.56,1.34-1.33,2.67-2.71,4.12-3.93q1.67-1.41,3.43-2.65a211.74,211.74,0,0,1,24.24-13.27c4.43-2.07,9-3.84,13.6-5.52q6.41-2.36,12.89-4.54c5.76-1.89,11.57-3.6,17.4-5.24s11.75-3.36,17.67-4.9c6.07-1.59,12.21-2.93,18.36-4.16s12.5-2.51,18.79-3.55c7.62-1.26,15.33-2,23-2.51l14.72-.7c4.83-.23,9.66-.38,14.5-.28,5.05.09,10.07.61,15.07,1.19s9.77,1.36,14.61,2.31c5.62,1.28,11.17,2.8,16.7,4.4q8.64,2.5,17.37,4.62c12.13,2.93,24.31,5.6,36.28,9.12,6.18,1.81,12.15,4.39,18.16,6.71s12.44,4.28,18.72,6.2a186.67,186.67,0,0,0,18.79,4.5c6.36,1.24,12.71,2.23,19.15,2.92s12.76,1.3,19.17,1.4c3.38,0,6.78-.15,10.15-.37s6.67-.49,10-.84a108.92,108.92,0,0,0,18.18-3.42,99.36,99.36,0,0,0,19-7.09,78.21,78.21,0,0,0,9.34-6,99.36,99.36,0,0,0,7.87-6.32,41.35,41.35,0,0,0,3.1-3.11,30.73,30.73,0,0,0,3.32-4.14c2.62-4.19,5.89-11,1.33-15l-1.15-1a6,6,0,0,0-9.38,4.52,6.81,6.81,0,0,0,.35,2.63q-.15.39-.33.78a26.29,26.29,0,0,1-2.64,3.8,82.57,82.57,0,0,1-12.37,10.24,49.91,49.91,0,0,1-6.68,3.86c-2.72,1.23-5.46,2.31-8.26,3.3s-5.39,1.67-8.12,2.44a82.38,82.38,0,0,1-8.35,1.71,155.35,155.35,0,0,1-17.08,1.86,91.13,91.13,0,0,1-10.32.16c-4.32-.25-8.64-.6-13-1-7.66-.73-15.22-1.88-22.77-3.34-5.83-1.26-11.6-2.64-17.31-4.39-6.37-1.94-12.69-4-18.91-6.42-5.75-2.22-11.45-4.54-17.36-6.28-6.11-1.8-12.27-3.31-18.45-4.81-6-1.44-12-2.83-18-4.28-5.68-1.37-11.3-2.95-16.92-4.56-6.26-1.8-12.54-3.51-18.94-4.79s-12.74-2.1-19.17-2.79c-12.06-1.3-24.16-.39-36.22.17q-6,.27-11.91.78a255.54,255.54,0,0,0-25.93,3.54Z"/><path class="cls-1" d="M318.72,662.22c-6.31.71-12.59,1.55-18.86,2.59-6.52,1.08-13.05,2.15-19.54,3.42-6.22,1.21-12.34,2.87-18.54,4.15-3.24.67-6.49,1.33-9.72,2-3.53.78-7,1.74-10.51,2.68-6.12,1.67-12.22,3.4-18.37,5-5.94,1.53-11.88,3.14-17.82,4.66l-2.53.65c-5.87,1.4-11.75,2.6-17.7,3.57-6.18,1-12.39,1.86-18.61,2.56-12.94,1.43-25.89,2.77-38.87,3.69-7.65.54-15.33.94-23,1-3.26-.1-6.52-.26-9.78-.58q-3.2-.32-6.37-.69c-2.16-.26-4.31-.61-6.47-.74a6.42,6.42,0,0,0-4.48,1.08,6,6,0,0,0-1.34,8.4,5.74,5.74,0,0,0,3.92,2.41c3.37.2,6.74.77,10.09,1.15,3.15.35,6.3.58,9.47.76a183.31,183.31,0,0,0,19.75-.25c12.61-.64,25.16-1.83,37.72-3.11,6.61-.68,13.21-1.39,19.8-2.25,6.34-.82,12.65-1.92,18.93-3.15,6.43-1.26,12.78-3,19.11-4.62s12.38-3.21,18.56-4.86c6.48-1.73,12.93-3.62,19.43-5.28,6-1.32,12-2.47,18-3.86,6.27-1.46,12.53-2.87,18.88-3.94s12.82-2.21,19.26-3.13,12.68-1.61,19.05-2.11c12.78-1,25.64-1,38.45-1,6.11,0,12.21-.16,18.31-.24,6.4-.09,12.81-.12,19.2-.38,5-.2,9.91-.37,14.88-.31a252.81,252.81,0,0,1,26.93,2.35,199.19,199.19,0,0,1,25.36,5.38c5.86,1.85,11.67,3.82,17.49,5.77,6.88,2.31,13.77,4.53,20.73,6.56a5.71,5.71,0,0,0,4.48-1.07,6,6,0,0,0,1.35-8.4L514.29,681a5.91,5.91,0,0,0-2.87-1.29l-4.77-1.42c-12.29-3.87-24.38-8.4-36.79-11.87-5.9-1.65-12-2.69-18-3.77a175,175,0,0,0-17.95-2.27c-6.79-.49-13.59-.92-20.4-.85-6.4.05-12.81.45-19.21.59-6.11.14-12.22.18-18.33.28-6.41.11-12.81.05-19.23.08-10.81.06-21.65.23-32.43,1.16q-2.77.24-5.55.55Zm-213.52,36,.93,0-.93,0Z"/><path class="cls-1" d="M756.66,657.6c-7.45.11-14.9.06-22.34.3q-6.44.2-12.86.5c-14.62.6-29.27.76-43.89,1.34-8,.31-15.9.59-23.82,1.24-7.37.6-14.68,1.73-22,2.57q-5.68.66-11.39,1.22a96.2,96.2,0,0,0-11.11,1.32,7.13,7.13,0,0,0,2.57,14,59.55,59.55,0,0,1,6.92-.91c2.28-.23,4.55-.43,6.82-.67q6.94-.72,13.85-1.6c5-.64,10-1.27,15-1.77,4.14-.41,8.31-.65,12.47-.85,9.56-.38,19.11-.65,28.67-1,9.93-.36,19.86-.49,29.79-1l-1.91.09c7.32-.31,14.64-.42,22-.5,7.58-.09,15.15-.22,22.73-.13s15,.11,22.55.24c7.33.12,14.66.31,22,.34s14.66-.16,22-.21c7.64-.06,15.28,0,22.93.07s15.37.43,23,.74c7.36.3,14.73.53,22.09,1,3.59.25,7.17.52,10.76.83a7.12,7.12,0,1,0,1.24-14.19c-7.82-.7-15.65-1.13-23.5-1.5q-11.37-.52-22.75-.87c-15.11-.45-30.21-.3-45.32-.11-14.82.19-29.64-.33-44.45-.47-5.44-.05-10.88-.15-16.32-.15-1.92,0-3.84,0-5.76,0Zm-35.48.82h0Z"/><path class="cls-1" d="M733.22,597.36a194.51,194.51,0,0,0-22.6,2,204.81,204.81,0,0,0-23.43,4.4c-7.43,2-14.84,4-22.34,5.67-6.89,1.54-13.79,3-20.65,4.67a152.15,152.15,0,0,0-19.32,6c-6,2.34-12,5-17.87,7.7-3.22,1.45-6.47,2.86-9.77,4.13s-6.82,2.43-10.18,3.77c-6,2.4-11.55,5.75-17.18,8.9-5.94,3.33-11.9,6.59-18,9.67a6.83,6.83,0,0,0-3,4.51,7.13,7.13,0,0,0,5.56,8.41l1.9.13a7.11,7.11,0,0,0,3.45-1.17c9.64-4.89,18.94-10.39,28.45-15.51,6.53-2.83,13.34-4.95,19.87-7.79,6-2.63,12-5.39,18.11-7.93a144.7,144.7,0,0,1,19-6.46c6.55-1.72,13.19-3.11,19.79-4.58,5.61-1.25,11.21-2.54,16.76-4,5.31-1.4,10.59-2.85,15.93-4.08,6.79-1.24,13.6-2.24,20.45-3.11a178.82,178.82,0,0,1,20.7-1.21c14.3-.12,28.57-.08,42.85.63,3.62.31,7.22.67,10.84,1.12s7,1,10.4,1.64a172.57,172.57,0,0,1,22.24,5c7.15,2.26,14.23,4.72,21.36,7,7.41,2.41,14.86,4.72,22.24,7.19l4.24,1.42c6.71,2.38,13.37,4.88,20,7.42,7.48,2.85,15,5.55,22.55,8.27,7.33,2.64,14.67,5.27,22.06,7.76,3.76,1.26,7.62,2.32,11.45,3.41,3.36,1,6.74,1.86,10.14,2.67,5.5,1.32,11,2.46,16.55,3.42a126.12,126.12,0,0,0,16.56,1.6,129.07,129.07,0,0,0,15.73-.65c5.44-.47,10.77-1.67,16.15-2.52a7.61,7.61,0,0,0,4.83-2.35,7.14,7.14,0,0,0-.55-10.07,6.89,6.89,0,0,0-5.24-1.8c-5.7.89-11.32,2.1-17.07,2.6-2.85.24-5.7.52-8.56.57s-5.43,0-8.16-.08c-4.46-.41-8.89-.93-13.32-1.69-4.92-.85-9.78-2-14.63-3.12-9.19-2.21-18.21-5-27.17-8-14.21-5.09-28.4-10.24-42.51-15.63-7.25-2.77-14.59-5.38-22-7.76-7.22-2.32-14.47-4.57-21.66-7s-14.54-5.09-22-7.14c-3.68-1-7.37-2-11.13-2.75q-5.91-1.14-11.85-2.18c-15.71-2.78-31.69-3.16-47.61-3.28q-3,0-6,0-8.19,0-16.39.19Z"/><path class="cls-1" d="M71.53,143.6a6.32,6.32,0,0,0-1.64,4.31c-.22,6.93-.43,13.85-.16,20.77.25,6.18.94,12.34,1.72,18.46.8,6.28,1.49,12.57,2.29,18.85.78,6.09,1.59,12.17,2.22,18.28,1.29,12.57,2.35,25.17,3.36,37.77,1,13.1,2,26.2,2.77,39.33q1.08,19.33,2.8,38.62c1.17,13.12,2.19,26.25,3,39.39.38,6.31.84,12.62,1.24,18.94s.72,12.63,1.08,18.94c.7,12.56,1.15,25.13,1.55,37.7.83,25.79,1.7,51.59,2.15,77.39.12,6.66.29,13.32.35,20s0,13.34.06,20c.09,12.56.08,25.13.23,37.69.17,13,.35,25.92.41,38.88.07,13.15.09,26.29.29,39.44.06,3.85.12,7.71.14,11.57a6,6,0,1,0,12-.36c0-6.59-.17-13.18-.26-19.76S107,666.62,107,660c0-13-.18-26.08-.33-39.12-.07-6.19-.17-12.37-.21-18.54,0-6.54,0-13.07-.06-19.61s-.12-13.36-.12-20c0-6.48,0-13-.17-19.44-.25-12.86-.47-25.71-.85-38.57q-.57-19-1.13-37.93c-.79-25.86-1.81-51.7-3.59-77.5-.89-12.8-1.63-25.61-2.67-38.4-1-12.63-2.31-25.24-3.08-37.88-.81-13.16-1.48-26.34-2.51-39.48-1-12.75-2-25.5-3.18-38.23q-.89-9.43-2-18.85c-.73-6.31-1.64-12.61-2.38-18.93C83.31,185,81.48,172.56,81.62,160c0-4.14.18-8.28.31-12.41.1-3.28-3.07-5.93-6.2-5.84l-.33,0a6.06,6.06,0,0,0-3.87,1.87Z"/><path class="cls-1" d="M985.29,71a5.79,5.79,0,0,0-1.64,4.31q1.35,10.08,2.56,20.19c.76,6.25,1.36,12.52,2.1,18.77,1.47,12.34,2.36,24.73,3.59,37.09,1.29,12.91,3,25.78,4.18,38.71,1.15,12.66,2.64,25.29,3.81,38,.59,6.29,1.06,12.6,1.63,18.9s1.13,12.61,1.66,18.92q1.67,19.31,2.83,38.64c.74,12.59,1.6,25.18,2,37.79s.75,25.19.94,37.78c.2,13.08.36,26.15.25,39.24-.11,12.87-.08,25.74-.09,38.62s.37,25.79.42,38.68.27,25.79.6,38.68c.33,12.39.61,24.79,1.11,37.18.54,13.06,1.54,26.09,2.51,39.13.59,7.93,1.45,15.84,2.07,23.77.68,8.53,1.28,17.06,1.75,25.6a6,6,0,0,0,12-.35c-.7-12.63-1.73-25.23-2.85-37.82-1.17-13.18-2.13-26.38-3-39.59-.8-12.64-1-25.32-1.35-38s-.7-25.09-.82-37.64c-.07-6.69-.06-13.38-.13-20.07-.06-6.49-.25-13-.32-19.48s0-12.77,0-19.15,0-12.59,0-18.88c.06-12.79.17-25.56,0-38.35s-.35-25.79-.75-38.68c-.39-12.61-.92-25.2-1.73-37.79s-1.53-25.36-2.55-38c-1-12.86-2.26-25.7-3.29-38.56s-2.37-25.55-3.75-38.3c-.66-6.14-1.1-12.29-1.77-18.42q-1.08-9.84-2.25-19.67c-1.5-12.54-2.41-25.14-3.63-37.71-.77-7.91-1.76-15.79-2.59-23.68-.92-8.63-2.07-17.25-3.21-25.85a6.51,6.51,0,0,0-1.89-4.2,6.09,6.09,0,0,0-4.31-1.64l-.33,0A6,6,0,0,0,985.29,71Z"/><path class="cls-1" d="M514.71,690.33a6.07,6.07,0,0,0-2.65,1.56,6.71,6.71,0,0,0-.94,7.73,7.38,7.38,0,0,0,2.53,2.47c1.23.59,2.5,1.1,3.79,1.57a31.21,31.21,0,0,0,4.43,1.3l1.9.36a6.57,6.57,0,0,0,3.88,1.41c5.69.49,11.45.39,17.14,1l1.41.18a5.86,5.86,0,0,0,2.87-.73l2.32,0A84.86,84.86,0,0,0,561.7,706c2.82-.42,5.63-.94,8.41-1.51l5.32-1.07c1.69-.34,3.36-.82,5-1.23,1.28-.32,2.53-.79,3.78-1.22l5.67-2,1.12-.39a6.22,6.22,0,0,0,3.59-2.77,6.07,6.07,0,0,0,.6-4.64c-.84-3-4.31-5.26-7.41-4.19a123.52,123.52,0,0,1-15.8,4.83c-4.93,1-9.86,2-14.83,2.73a99.76,99.76,0,0,1-14,.6l-2.45-.53c-2.34-.5-4.69-1-7-1.43-1.45-.29-2.91-.56-4.37-.84a22.61,22.61,0,0,0-5.23-1.43c-.92-.19-1.85-.35-2.79-.51a19.22,19.22,0,0,0-4.84-.47,6.14,6.14,0,0,0-1.72.38Z"/><path class="cls-2" d="M189.11,357.37c-5.15,2.26-11.25-.57-16.39-1.68-5.34-1.15-10.71-1.57-15.84.64-8.43,3.64-13.36,12.54-14.23,21.41-1.05,10.79,4.71,20.81,12.06,28.28a91,91,0,0,0,12.46,10.2,44.62,44.62,0,0,1,8.43,7c2.1,2.47,3.68,5.36,5.9,7.73,3.33,3.56,8.25,6.21,13.26,5.28a11.71,11.71,0,0,0,5.53-2.69c.78-.68,1.66-2.09,2.56-2.55,1.62-.83.59-.73,2.63.36,8.6,4.59,20.19,1.43,25.2-7,2.6-4.36,3.1-9.52,3.32-14.48a80.17,80.17,0,0,1,4-21.26c3.25-10.45,5.38-22.77-2.54-31.78C228,348.4,215,347,204.36,347.64c-6.21.41-11.21,2.32-14.66,7.69-4,6.29-6.72,13.85-9.12,20.88-1.88,5.5,6.81,7.86,8.68,2.4a117.93,117.93,0,0,1,6.41-15.42c2.42-4.78,4.68-6.42,10.11-6.61,7.34-.24,16.89.06,22.39,5.69,7.28,7.45,2.58,19.14,0,27.54a62.48,62.48,0,0,0-2.94,14.43c-.29,4.5.28,9.56-1.44,13.84a10.21,10.21,0,0,1-9.26,6.41c-4.09.13-7-3.2-11-3.21-3.79,0-5.62,2.54-8.28,4.66-4.6,3.65-8-2.09-10.58-5.6-9.91-13.47-33.93-20.74-33.12-40.7.33-8.26,5.82-16.54,14.83-15.9,9.68.69,17.67,5.63,27.3,1.4,5.29-2.33.71-10.09-4.55-7.77Z"/><path class="cls-2" d="M192.29,366.92l9.79-8.15c2.29-1.91,5-3.74,6.31-6.5,2.88-6-1.32-14.93-2.81-20.92-1-4.13-7.86-4.46-8.68,0-.56,3-2.84,4.54-5,6.52a23.57,23.57,0,0,0-5.57,7,17.42,17.42,0,0,0,.16,16.19c2.71,5.12,10.48.58,7.77-4.54-4.86-9.19,9.79-14.55,11.31-22.8H196.9L199,342c.7,2.83,2.26,5.44,0,7.64-4,3.92-8.76,7.3-13.06,10.88-4.46,3.71,1.94,10.05,6.36,6.37Z"/><path class="cls-2" d="M191.49,360.8a23.46,23.46,0,0,0-16.82-12.91c-5.66-1-8.09,7.65-2.39,8.68a15.15,15.15,0,0,1,11.44,8.77c2.47,5.24,10.23.68,7.77-4.54Z"/></g></g></svg>