<svg xmlns="http://www.w3.org/2000/svg" viewBox="0 0 34.73 34.33"><defs><style>.cls-1{fill:#eaad4b;}</style></defs><title>falling-leaf-one</title><g id="Layer_2" data-name="Layer 2"><g id="home_-_section_four" data-name="home - section four"><path class="cls-1" d="M8.08,29C4.74,18.75,18,15.73,24.62,12.73,29.52,10.52,33.79,7,34.68,1.46l-2.29-.31c-.63,9.85-.75,19-10,24.82C15.65,30.14,7.56,28.8.6,32.18c-1.36.66-.17,2.67,1.18,2,5.06-2.46,10.7-1.94,16-3.58a25.41,25.41,0,0,0,9.65-5.57c7-6.51,6.76-15,7.33-23.9.08-1.3-2.09-1.62-2.3-.31C30.25,14.39.12,12.13,5.83,29.59,6.29,31,8.55,30.4,8.08,29Z"/><path class="cls-1" d="M10.65,29.29c-.05-2.55,2.8-5.35,4.52-7.08a22,22,0,0,1,7.54-4.7,25.46,25.46,0,0,0,8.75-6.4c1-1.09-.62-2.75-1.65-1.65a24.17,24.17,0,0,1-8.38,6.07,24.64,24.64,0,0,0-6,3.25c-3,2.41-7.23,6.34-7.16,10.51a1.17,1.17,0,0,0,2.34,0Z"/></g></g></svg>