<svg xmlns="http://www.w3.org/2000/svg" viewBox="0 0 34.73 34.33"><defs><style>.cls-1{fill:#eaad4b;}</style></defs><title>falling-leaf-four</title><g id="Layer_2" data-name="Layer 2"><g id="home_-_section_four" data-name="home - section four"><path class="cls-1" d="M26.65,5.36C30,15.58,16.73,18.6,10.11,21.59,5.21,23.81.93,27.33,0,32.87l2.3.31c.63-9.85.74-19,10-24.82,6.71-4.18,14.8-2.83,21.76-6.21,1.35-.66.17-2.68-1.18-2-5.06,2.46-10.7,1.94-16,3.58A25.28,25.28,0,0,0,7.33,9.28c-7,6.5-6.76,15-7.33,23.9-.08,1.3,2.09,1.62,2.3.31C4.48,19.93,34.61,22.2,28.9,4.74c-.46-1.42-2.72-.81-2.25.62Z"/><path class="cls-1" d="M24.08,5c.05,2.55-2.8,5.34-4.52,7.08A22.19,22.19,0,0,1,12,16.82a25.46,25.46,0,0,0-8.75,6.4c-1,1.09.61,2.75,1.65,1.65A24.17,24.17,0,0,1,13.3,18.8a25.18,25.18,0,0,0,6-3.25c3-2.41,7.23-6.35,7.16-10.51a1.17,1.17,0,0,0-2.34,0Z"/></g></g></svg>