<svg xmlns="http://www.w3.org/2000/svg" viewBox="0 0 43.62 23.49"><defs><style>.cls-1{fill:#eaad4b;}</style></defs><title>falling-leaf-seven</title><g id="Layer_2" data-name="Layer 2"><g id="home_-_section_four" data-name="home - section four"><path class="cls-1" d="M9,18.52C9.42,7,24.75,9.93,32.16,8.81c4.72-.71,9-2.73,11.34-7L41.48.6C37.73,9.17,35,17.43,25,20.28,16.73,22.66,9.32,18.2,1.12,19.05c-1.48.16-1.5,2.5,0,2.34,5.15-.53,9.82,1.38,14.86,1.94a25.12,25.12,0,0,0,12.19-1.65C37.18,18,39.86,10.1,43.5,1.78c.59-1.35-1.28-2.54-2-1.18C34.79,12.81,7.32-.1,6.7,18.52,6.65,20,9,20,9,18.52Z"/><path class="cls-1" d="M11.37,19.71C13,14.92,22,13.18,26.09,12.89A28,28,0,0,0,37.21,9.78c1.35-.67.17-2.69-1.18-2-3.94,2-7.3,2.52-11.64,2.88A20.79,20.79,0,0,0,18.33,12c-3.44,1.36-7.93,3.37-9.22,7.09-.49,1.43,1.77,2,2.26.63Z"/></g></g></svg>