<svg xmlns="http://www.w3.org/2000/svg" viewBox="0 0 43.62 23.49"><defs><style>.cls-1{fill:#eaad4b;}</style></defs><title>falling-leaf-two</title><g id="Layer_2" data-name="Layer 2"><g id="home_-_section_four" data-name="home - section four"><path class="cls-1" d="M6.7,5c.62,18.62,28.09,5.71,34.78,17.92.74,1.35,2.61.17,2-1.18-3.63-8.3-6.34-16.26-15.33-19.9a25.22,25.22,0,0,0-12-1.67c-5.1.53-9.82,2.5-15,2-1.5-.16-1.49,2.18,0,2.34C9.33,5.29,16.72.83,25,3.21,34.91,6,37.74,14.35,41.48,22.89l2-1.18c-2.36-4.3-6.61-6.32-11.34-7C24.72,13.55,9.42,16.5,9,5,9,3.47,6.65,3.46,6.7,5Z"/><path class="cls-1" d="M9.11,4.41c1.29,3.74,5.78,5.71,9.22,7.09a18.77,18.77,0,0,0,5.21,1.29c4.68.48,8.17.78,12.49,2.94,1.35.67,2.53-1.35,1.18-2A27.77,27.77,0,0,0,26.09,10.6c-4.18-.3-13.07-2-14.72-6.82-.49-1.41-2.75-.8-2.26.63Z"/></g></g></svg>