<svg xmlns="http://www.w3.org/2000/svg" viewBox="0 0 337.34 116.69"><defs><style>.cls-1{fill:#eaad4b;}</style></defs><title>falling-leaves-bottom</title><g id="Layer_2" data-name="Layer 2"><g id="home_-_section_four" data-name="home - section four"><g id="bottom_leaves" data-name="bottom leaves"><path class="cls-1" d="M216.19,62.29c.38-11.53,15.7-8.59,23.11-9.71,4.73-.71,9-2.73,11.35-7l-2-1.18c-3.76,8.57-6.5,16.83-16.47,19.69-8.28,2.37-15.69-2.09-23.9-1.23-1.48.15-1.49,2.49,0,2.34,5.16-.54,9.82,1.37,14.87,1.93a25.13,25.13,0,0,0,12.19-1.65c9-3.64,11.68-11.58,15.33-19.9.59-1.35-1.28-2.54-2-1.18-6.69,12.22-34.16-.7-34.78,17.92,0,1.51,2.29,1.51,2.34,0Z"/><path class="cls-1" d="M218.52,63.48c1.64-4.78,10.62-6.52,14.71-6.82a28,28,0,0,0,11.13-3.11c1.35-.67.16-2.69-1.18-2-4,2-7.3,2.52-11.64,2.89a20.32,20.32,0,0,0-6.06,1.34c-3.44,1.36-7.94,3.37-9.22,7.09-.49,1.43,1.77,2,2.26.63Z"/><path class="cls-1" d="M28.9,29.59C34.61,12.13,4.48,14.39,2.3.84c-.21-1.3-2.38-1-2.3.31.57,8.9.32,17.4,7.33,23.9a25.25,25.25,0,0,0,8.94,5.32C21.73,32.25,27.68,31.63,33,34.2c1.35.65,2.54-1.36,1.18-2-7-3.39-15-2-21.76-6.21C3.05,20.16,3,11,2.34,1.15L0,1.46C.93,7,5.2,10.52,10.11,12.73c6.64,3,19.88,6,16.54,16.24-.47,1.43,1.79,2,2.25.62Z"/><path class="cls-1" d="M26.42,29.29c.07-4.16-4.16-8.12-7.16-10.51a22.9,22.9,0,0,0-5.31-3,25.6,25.6,0,0,1-9-6.34c-1-1.1-2.69.55-1.65,1.65A25.46,25.46,0,0,0,12,17.51c4,1.73,12.16,6.35,12.06,11.78a1.17,1.17,0,0,0,2.34,0Z"/><path class="cls-1" d="M308.44,87.1c-5.71,17.46,24.43,15.19,26.6,28.75.21,1.3,2.39,1,2.3-.31-.57-8.9-.32-17.4-7.33-23.9a25.07,25.07,0,0,0-8.93-5.32c-5.47-1.88-11.41-1.26-16.69-3.83-1.35-.66-2.53,1.36-1.18,2,7,3.39,15.05,2,21.76,6.21,9.32,5.8,9.4,14.92,10,24.82l2.3-.31c-.89-5.54-5.16-9.06-10.06-11.28-6.65-3-19.88-6-16.54-16.23.46-1.43-1.79-2-2.26-.62Z"/><path class="cls-1" d="M310.92,87.4c-.07,4.16,4.16,8.12,7.16,10.51a23.11,23.11,0,0,0,5.31,3,25.38,25.38,0,0,1,9,6.34c1,1.1,2.69-.56,1.66-1.65a25.5,25.5,0,0,0-8.76-6.4c-4-1.73-12.15-6.35-12.06-11.78a1.17,1.17,0,0,0-2.34,0Z"/><path class="cls-1" d="M127.23,55.47c-.38,11.52-15.7,8.58-23.11,9.71-4.73.71-9,2.73-11.35,7l2,1.18c3.76-8.58,6.5-16.83,16.47-19.69,8.28-2.37,15.69,2.09,23.9,1.23,1.48-.15,1.5-2.49,0-2.34-5.16.54-9.82-1.37-14.86-1.93a25.16,25.16,0,0,0-12.2,1.65c-9,3.64-11.68,11.58-15.33,19.9-.59,1.34,1.28,2.53,2,1.18,6.69-12.22,34.16.7,34.78-17.92.05-1.51-2.29-1.51-2.34,0Z"/><path class="cls-1" d="M124.91,54.28c-1.65,4.78-10.63,6.52-14.72,6.82a27.86,27.86,0,0,0-11.13,3.11c-1.35.67-.16,2.69,1.18,2,4-2,7.3-2.52,11.64-2.89A20.63,20.63,0,0,0,117.94,62c3.44-1.36,7.94-3.37,9.22-7.1.49-1.42-1.77-2-2.25-.62Z"/></g></g></g></svg>