<svg xmlns="http://www.w3.org/2000/svg" viewBox="0 0 337.34 116.69"><defs><style>.cls-1{fill:#eaad4b;}</style></defs><title>falling-leaves-top</title><g id="Layer_2" data-name="Layer 2"><g id="home_-_section_four" data-name="home - section four"><g id="top_leaves" data-name="top leaves"><path class="cls-1" d="M123.49,62.29c-.61-18.62-28.08-5.7-34.78-17.92-.74-1.35-2.6-.17-2,1.18C90.33,53.86,93,61.82,102,65.45a25.16,25.16,0,0,0,12,1.67c5.1-.53,9.82-2.49,15-2,1.5.15,1.48-2.19,0-2.34-8.21-.86-15.6,3.6-23.9,1.23-9.89-2.84-12.72-11.15-16.47-19.69l-2,1.18c2.36,4.31,6.62,6.32,11.35,7,7.44,1.13,22.73-1.81,23.12,9.71,0,1.5,2.38,1.51,2.33,0Z"/><path class="cls-1" d="M121.08,62.86c-1.28-3.74-5.77-5.72-9.21-7.1a18.75,18.75,0,0,0-5.22-1.29c-4.68-.48-8.16-.78-12.48-2.94-1.35-.67-2.53,1.35-1.19,2a27.81,27.81,0,0,0,11.13,3.11c4.18.3,13.07,2,14.72,6.82.49,1.41,2.75.8,2.25-.62Z"/><path class="cls-1" d="M310.7,29c-3.34-10.22,9.91-13.24,16.54-16.24,4.9-2.21,9.17-5.73,10.06-11.27L335,1.15c-.63,9.85-.74,19-10,24.82-6.7,4.17-14.8,2.83-21.76,6.21-1.35.66-.17,2.67,1.18,2,5.06-2.46,10.7-1.94,16-3.58A25.34,25.34,0,0,0,330,25.05c7-6.51,6.76-15,7.33-23.9.08-1.3-2.09-1.62-2.3-.31-2.17,13.55-32.31,11.29-26.6,28.75.47,1.42,2.72.81,2.26-.62Z"/><path class="cls-1" d="M313.26,29.29c0-2.55,2.81-5.35,4.52-7.08a22.14,22.14,0,0,1,7.54-4.7,25.59,25.59,0,0,0,8.76-6.4c1-1.09-.62-2.75-1.66-1.65a24.23,24.23,0,0,1-8.37,6.07,24.7,24.7,0,0,0-6,3.25c-3,2.41-7.23,6.34-7.16,10.51a1.17,1.17,0,0,0,2.34,0Z"/><path class="cls-1" d="M26.65,87.72C30,97.94,16.73,101,10.11,104,5.21,106.17.93,109.69,0,115.23l2.3.31c.63-9.85.74-19,10-24.82,6.71-4.17,14.8-2.83,21.76-6.21,1.35-.66.17-2.68-1.18-2-5.06,2.46-10.7,1.94-16,3.58a25.41,25.41,0,0,0-9.65,5.57c-7,6.5-6.76,15-7.33,23.9-.08,1.3,2.09,1.62,2.3.31,2.18-13.56,32.31-11.29,26.6-28.75-.46-1.42-2.72-.81-2.25.62Z"/><path class="cls-1" d="M24.08,87.4c.05,2.55-2.8,5.34-4.52,7.08A22,22,0,0,1,12,99.18a25.46,25.46,0,0,0-8.75,6.4c-1,1.09.61,2.75,1.65,1.65a24.17,24.17,0,0,1,8.38-6.07,24.82,24.82,0,0,0,6-3.25c3-2.41,7.23-6.34,7.16-10.51a1.17,1.17,0,0,0-2.34,0Z"/><path class="cls-1" d="M207.77,55.47c.62,18.62,28.09,5.7,34.78,17.92.74,1.35,2.61.17,2-1.18-3.64-8.31-6.34-16.26-15.33-19.9a25.12,25.12,0,0,0-12-1.67c-5.09.53-9.81,2.49-15,2-1.5-.15-1.49,2.19,0,2.34,8.21.86,15.59-3.6,23.89-1.23,9.9,2.84,12.73,11.15,16.47,19.69l2-1.18c-2.36-4.3-6.61-6.32-11.34-7-7.44-1.13-22.74,1.82-23.12-9.71-.05-1.5-2.39-1.51-2.34,0Z"/><path class="cls-1" d="M210.18,54.91c1.29,3.73,5.77,5.71,9.22,7.09a18.77,18.77,0,0,0,5.21,1.29c4.68.48,8.17.78,12.49,2.94,1.34.67,2.53-1.35,1.18-2a27.77,27.77,0,0,0-11.12-3.11c-4.18-.3-13.07-2-14.72-6.82-.49-1.41-2.75-.8-2.26.63Z"/></g></g></g></svg>