<svg xmlns="http://www.w3.org/2000/svg" viewBox="0 0 44 44"><defs><style>.cls-1{fill:#f9f2e5;}</style></defs><title>instagram</title><g id="Layer_2" data-name="Layer 2"><g id="footer"><g id="surface1"><path class="cls-1" d="M12.94,0A13,13,0,0,0,0,12.94V31.06A13,13,0,0,0,12.94,44H31.06A13,13,0,0,0,44,31.06V12.94A13,13,0,0,0,31.06,0Zm0,4H31.06A8.92,8.92,0,0,1,40,12.94V31.06A8.92,8.92,0,0,1,31.06,40H12.94A8.92,8.92,0,0,1,4,31.06V12.94A8.92,8.92,0,0,1,12.94,4ZM33.81,8.38a1.81,1.81,0,1,0,1.82,1.81A1.8,1.8,0,0,0,33.81,8.38ZM22,10A12,12,0,1,0,34,22,12,12,0,0,0,22,10Zm0,4a8,8,0,1,1-8,8A8,8,0,0,1,22,14Z"/></g></g></g></svg>