<svg xmlns="http://www.w3.org/2000/svg" viewBox="0 0 136.89 105.17"><defs><style>.cls-1{fill:#ddaf4a;}</style></defs><title>leaf</title><g id="Layer_2" data-name="Layer 2"><g id="home_-_section_two" data-name="home - section two"><path class="cls-1" d="M25.87,91.62C22.27,78,30,64.92,40.45,56.57,52.36,47,68,44,82.53,40.63c21.8-5.1,48.55-14,54.32-38.75L134,1.08c-3.22,16.49-5.09,34.19-11.08,50-5.67,15-17.75,26.72-31.37,34.67-13.79,8.06-29,11.64-44.9,11.94-15.36.28-31-1.12-45.6,4.52-1.78.69-1,3.59.8,2.9,16.67-6.43,34.49-3.5,51.88-4.71A90.31,90.31,0,0,0,95.85,86.58C108.3,78.67,119.27,67.64,125,53.86c6.71-16.22,8.54-34.86,11.88-52,.37-1.88-2.44-2.7-2.89-.8-7.14,30.53-44.54,33.83-69.24,40.86C52.1,45.54,40,51,31.39,61.22,24,70,20,81.07,23,92.41a1.5,1.5,0,0,0,2.9-.79Z"/><path class="cls-1" d="M35.18,93.26C35,84,46,76.38,52.34,70.89c7.3-6.27,15.12-11.36,24.35-14.31,7.87-2.51,16.08-4,23.64-7.42,7.81-3.57,14.49-9.08,21.07-14.5,1.49-1.22-.64-3.33-2.12-2.12-8.21,6.76-16.38,13-26.6,16.36-9,2.93-18.33,4.47-26.77,8.83C57.9,61.87,51,67.87,44.44,74,38.77,79.2,32,84.85,32.18,93.26c0,1.92,3,1.93,3,0Z"/></g></g></svg>