<svg xmlns="http://www.w3.org/2000/svg" viewBox="0 0 886.51 69.56"><defs><style>.cls-1{fill:none;stroke:#eaad4b;stroke-miterlimit:10;stroke-width:3px;}.cls-2{fill:#eaad4b;}</style></defs><title>leaf-border_1</title><g id="Layer_2" data-name="Layer 2"><g id="home_-_section_one" data-name="home - section one"><line class="cls-1" y1="33.01" x2="886.51" y2="35.7"/><path class="cls-2" d="M405,30C408.59,7.39,372,17.22,366.62.82a1.17,1.17,0,0,0-2.26.62c2.61,10.74,4.14,21,14.12,27.35a30.76,30.76,0,0,0,13,4.57c6.7.74,13.34-1,19.93.93A1.17,1.17,0,0,0,412,32c-9.87-2.94-20,1-29.65-3.74-4.66-2.29-8.9-5.88-11.15-10.63C368.79,12.5,368,6.35,366.62.82l-2.26.62c2,6,7.22,9.46,13.08,11.22,8.62,2.58,27.49,3,25.31,16.67-.23,1.47,2,2.11,2.26.62Z"/><path class="cls-2" d="M401.94,29.89c-.78-4.92-6.8-8.82-10.9-11a33.72,33.72,0,0,0-8.4-2.73,29,29,0,0,1-11.05-5.53c-1.21-.9-2.37,1.13-1.18,2a33.4,33.4,0,0,0,13.32,6.15c5.16,1.22,15,5.56,16,11.73.23,1.48,2.48.85,2.25-.62Z"/><path class="cls-2" d="M639.84,29.33c-2.17-13.67,16.71-14.1,25.32-16.67,5.86-1.76,11.11-5.2,13.08-11.22L676,.82c-2.7,11.12-4.42,22-15.77,27.48-9.67,4.67-19.79.8-29.66,3.74a1.17,1.17,0,0,0,.62,2.25c6.59-2,13.24-.2,19.94-.93a30.67,30.67,0,0,0,13-4.57c10-6.35,11.52-16.61,14.13-27.35A1.17,1.17,0,0,0,676,.82c-3.81,11.67-19,9.85-28.24,13.66-6.35,2.63-11.29,8.34-10.15,15.47.23,1.49,2.49.86,2.25-.62Z"/><path class="cls-2" d="M642.91,30.51c1-6.15,10.83-10.51,16-11.73a33.48,33.48,0,0,0,13.31-6.15c1.2-.89,0-2.92-1.18-2A29.8,29.8,0,0,1,660.81,16c-3.2.88-6.29,1.33-9.25,2.92-4.11,2.21-10.13,6.11-10.9,11-.24,1.47,2,2.1,2.25.62Z"/><path class="cls-2" d="M282.36,40.23c2.18,13.67-16.71,14.1-25.31,16.67-5.87,1.76-11.12,5.2-13.08,11.22l2.26.62c2.7-11.12,4.42-22,15.77-27.48,9.67-4.67,19.78-.8,29.65-3.74a1.17,1.17,0,0,0-.62-2.25c-6.58,1.95-13.24.2-19.93.93a30.71,30.71,0,0,0-13,4.57c-10,6.35-11.51,16.61-14.12,27.35a1.17,1.17,0,0,0,2.26.62c3.8-11.68,19-9.86,28.24-13.66,6.34-2.63,11.28-8.34,10.15-15.47-.24-1.49-2.49-.86-2.26.62Z"/><path class="cls-2" d="M279.29,39.05c-1,6.15-10.82,10.51-16,11.73A33.46,33.46,0,0,0,250,56.93c-1.19.89,0,2.92,1.18,2a29.84,29.84,0,0,1,10.2-5.34c3.2-.88,6.28-1.33,9.25-2.92,4.11-2.21,10.12-6.11,10.9-11,.23-1.47-2-2.1-2.26-.62Z"/><path class="cls-2" d="M509.57,39.61C506,62.17,542.62,52.34,548,68.74a1.17,1.17,0,0,0,2.25-.62c-2.61-10.74-4.14-21-14.12-27.35a30.71,30.71,0,0,0-13-4.57c-6.7-.74-13.33,1-19.93-.93a1.17,1.17,0,0,0-.62,2.25c9.87,2.94,20-1,29.66,3.74,4.65,2.29,8.9,5.88,11.15,10.63,2.45,5.17,3.27,11.32,4.62,16.85l2.25-.62c-2-6-7.21-9.46-13.07-11.22-8.62-2.58-27.5-3-25.32-16.67.23-1.47-2-2.11-2.26-.62Z"/><path class="cls-2" d="M512.64,39.67c.78,4.92,6.8,8.82,10.91,11a34.06,34.06,0,0,0,8.39,2.73A28.79,28.79,0,0,1,543,59c1.21.9,2.38-1.13,1.18-2a33.42,33.42,0,0,0-13.31-6.15c-5.16-1.23-15-5.57-16-11.73-.24-1.48-2.49-.85-2.26.62Z"/></g></g></svg>