<svg xmlns="http://www.w3.org/2000/svg" viewBox="0 0 125 125"><defs><style>.cls-1{fill:#e2b354;}</style></defs><title>pencil</title><g id="Layer_2" data-name="Layer 2"><g id="slideout_navigation" data-name="slideout navigation"><path class="cls-1" d="M85,17.63a1.81,1.81,0,0,0,1.57,2,27.63,27.63,0,0,1,4.07.53,16.81,16.81,0,0,1,3,1.3A24.22,24.22,0,0,1,98.16,25a20.62,20.62,0,0,1,2.6,3.21,15.06,15.06,0,0,1,1.23,3.1,12.77,12.77,0,0,1,.51,2.93,1.74,1.74,0,0,0,.71,1.21,1.86,1.86,0,0,0,1.33.35,1.83,1.83,0,0,0,1.21-.72,1.93,1.93,0,0,0,.35-1.32,13.23,13.23,0,0,0-.51-2.93,20,20,0,0,0-1.18-3.47,15.31,15.31,0,0,0-2.46-3.6,24.6,24.6,0,0,0-6.68-5.42,16.13,16.13,0,0,0-3.88-1.63,24.9,24.9,0,0,0-4.41-.6h-.14A1.83,1.83,0,0,0,85,17.63Z"/><path class="cls-1" d="M92.82,10.23c-.44.36-.86.74-1.27,1.13-.74.71-1.47,1.43-2.24,2.1-1,.89-2,1.83-3,2.72A1.81,1.81,0,1,0,88.56,19c.83-.72,1.62-1.47,2.42-2.22.47-.43,1-.84,1.42-1.27.61-.58,1.21-1.18,1.83-1.75l.86-.75.25-.19a9.09,9.09,0,0,1,1,.18,13.17,13.17,0,0,1,2.75,1.07c1,.58,2.12,1.12,3.18,1.71a28,28,0,0,1,2.93,1.87,27.4,27.4,0,0,1,2.5,2.19,26.36,26.36,0,0,1,4,5.25l-.08-.15.13.23.12.2-.09-.14c0,.08.1.16.14.24-.47.64-1,1.23-1.54,1.82s-.9,1-1.37,1.49l-.85.79a18,18,0,0,0-1.64,1.63c-.4.43-.78.89-1.17,1.35s-.88,1-1.29,1.5a1.81,1.81,0,0,0,.36,2.53,1.85,1.85,0,0,0,2.55-.37c.45-.56.94-1.08,1.41-1.63s.91-1.06,1.38-1.57c.63-.62,1.31-1.18,1.92-1.81s1.26-1.35,1.88-2c.37-.42.73-.84,1.07-1.28a3.69,3.69,0,0,0,1-2.14,3.17,3.17,0,0,0-.42-1.71c-.32-.58-.65-1.16-1-1.72a27.87,27.87,0,0,0-4-5.1c-.73-.71-1.49-1.4-2.28-2.05a21.41,21.41,0,0,0-2.79-1.9c-1.38-.83-2.81-1.53-4.22-2.31l.42.22c-.56-.31-1.11-.62-1.69-.89A11.26,11.26,0,0,0,98,9.74a12.11,12.11,0,0,0-3.37-.54,3.34,3.34,0,0,0-1.8,1Zm18.93,15,0-.06,0-.08a.64.64,0,0,1,.08.14Z"/><path class="cls-1" d="M105.91.23a11.73,11.73,0,0,0-2.32.78,8.87,8.87,0,0,0-1.93,1.28c-.61.55-1.2,1.13-1.82,1.67l-3,2.57c-1,.86-2.09,1.64-3.17,2.43a1.81,1.81,0,1,0,2.23,2.86c1-.73,2-1.47,3-2.27s1.86-1.59,2.8-2.37c.69-.58,1.36-1.17,2-1.8a7.59,7.59,0,0,1,1.07-.88,9.94,9.94,0,0,1,1.83-.72,6.88,6.88,0,0,1,1.09-.18,10.33,10.33,0,0,1,1.92.27,11,11,0,0,1,1.87.88,27.5,27.5,0,0,1,4.24,3.19c.93,1,1.8,2,2.65,3a39.21,39.21,0,0,1,2.49,3.24,7.85,7.85,0,0,1,.49,1.06,3.93,3.93,0,0,1,.06.48,5.83,5.83,0,0,1-.1.73,7.19,7.19,0,0,1-.37.86,24.38,24.38,0,0,1-1.57,2.2c-.58.75-1.14,1.51-1.7,2.26a58.38,58.38,0,0,1-3.77,4.53c-1.32,1.45-2.74,2.83-4,4.33-.59.7-1.17,1.43-1.75,2.14-.3.37-.63.74-1,1.1s-.78.77-1.12,1.21a1.77,1.77,0,0,0-.22,1.77s0,0,0,0a1.9,1.9,0,0,0,1,1,1.8,1.8,0,0,0,2.27-.84c.33-.38.71-.72,1-1.08s.81-.94,1.21-1.42c.75-.92,1.5-1.87,2.31-2.75,1.67-1.8,3.41-3.54,5-5.43.77-.92,1.51-1.89,2.23-2.85s1.46-1.91,2.17-2.88A15.69,15.69,0,0,0,124.1,19a8.6,8.6,0,0,0,.77-2.09c.47-1.95-.42-3.87-1.53-5.42-.72-1-1.5-2-2.28-2.89s-1.51-1.85-2.34-2.69a25.69,25.69,0,0,0-6.24-4.68,11.86,11.86,0,0,0-1.35-.64,7.75,7.75,0,0,0-1.4-.35A9.64,9.64,0,0,0,108,0h-.16a6.66,6.66,0,0,0-1.89.23Z"/><path class="cls-1" d="M92.3,13.51a1.85,1.85,0,0,0-.69,1.21A1.9,1.9,0,0,0,92,16.06a1.72,1.72,0,0,0,1.21.68,11.68,11.68,0,0,1,2,.15,13.58,13.58,0,0,1,2.19.93A13.18,13.18,0,0,1,99.13,19c.62.49,1.21,1,1.79,1.52a25.26,25.26,0,0,1,1.65,1.92,1.81,1.81,0,1,0,2.86-2.22,21.15,21.15,0,0,0-3.54-3.66,18.16,18.16,0,0,0-2.32-1.57,20,20,0,0,0-2.12-1.07,7.6,7.6,0,0,0-1.73-.56,12.16,12.16,0,0,0-2.08-.17,2,2,0,0,0-1.34.37Z"/><path class="cls-1" d="M86.12,16.5c-1.13,1.06-2.24,2.12-3.32,3.22-.91.93-1.76,1.91-2.64,2.85s-1.77,1.88-2.66,2.84c-.76.81-1.51,1.62-2.28,2.43l.12-.12-.12.12-.22.23.19-.2C74.12,29,73,30,71.93,31s-2.15,2.16-3.22,3.25l.11-.1-2.6,2.64.16-.17c-1.95,2-3.87,4-5.81,6l.22-.23c-1.48,1.49-3,3-4.44,4.47-1,1.07-2.07,2.15-3.11,3.23-1.41,1.43-2.87,2.8-4.31,4.18-1.61,1.54-3.19,3.11-4.78,4.68-3,2.93-6.07,5.73-9.12,8.58-1.63,1.5-3.19,3.07-4.76,4.62s-3.43,3.35-5.12,5-3.56,3.41-5.33,5.13-3.62,3.56-5.4,5.38c-.92.92-1.86,1.83-2.84,2.71A1.85,1.85,0,0,0,11.27,93a1.82,1.82,0,0,0,2.54.32c1.88-1.7,3.62-3.52,5.41-5.31s3.67-3.59,5.53-5.35,3.4-3.37,5.12-5,3.38-3.32,5.08-5c1.51-1.48,3.08-2.91,4.64-4.35s3.15-3,4.74-4.46,2.9-2.81,4.34-4.23L53.45,55c2.11-2,4.1-4.15,6.14-6.24l-.34.34c1.55-1.57,3.12-3.12,4.67-4.7,1.33-1.35,2.62-2.74,4-4.1l-.11.12L70.07,38l-.1.1,2.88-2.94-.09.09c2.23-2.23,4.56-4.36,6.7-6.68,1.09-1.19,2.21-2.35,3.31-3.54s1.94-2.13,2.94-3.17c.86-.86,1.75-1.7,2.64-2.53a1.87,1.87,0,0,0,.69-1.2,1.79,1.79,0,0,0-.37-1.34,1.94,1.94,0,0,0-1.5-.71,1.52,1.52,0,0,0-1,.39ZM67.54,40.6l.23-.23-.23.23Zm2.19-2.22.24-.25-.24.25Zm-3.35-1.72.09-.09-.09.09Zm2.44-2.47.09-.09-.09.09Zm6.37-6.32,0,0h0l0,0Z"/><path class="cls-1" d="M107.49,33.25c-2.31,2.31-4.5,4.71-6.76,7.08-1.44,1.45-2.92,2.86-4.41,4.27s-3,2.94-4.52,4.41c-3,3-6.12,5.92-9.11,9l.07-.07-3.7,3.78c-1.27,1.29-2.56,2.57-3.84,3.86s-2.5,2.57-3.75,3.86l0,0c-1.31,1.34-2.63,2.67-3.95,4s-2.58,2.69-3.88,4c.07-.08.15-.15.23-.23l-.33.33,0,0v0c-1.42,1.42-2.85,2.83-4.26,4.25-1.57,1.58-3.09,3.19-4.63,4.77l.34-.34c-2.12,2.16-4.29,4.29-6.41,6.45l.35-.34c-3,3-6,6-9.11,8.77-1.48,1.32-3,2.6-4.48,3.91-.68.59-1.33,1.2-2,1.8a6,6,0,0,0-1.5-1.42,9.84,9.84,0,0,0-2.35-1.25,8.34,8.34,0,0,0-1.45-.37l-.15,0c0-.11,0-.21,0-.32a12.25,12.25,0,0,0-.35-1.57,10.52,10.52,0,0,0-1.34-2.76,8.06,8.06,0,0,0-2.42-2.34,7.17,7.17,0,0,0-3-1,9.19,9.19,0,0,0-1.39,0l-.29,0c-.26-.18-.51-.38-.78-.56-.43-.27-.87-.51-1.31-.75s-1.2-.54-1.79-.83l0,0a.41.41,0,0,1-.05-.09,1.81,1.81,0,0,0-2.54-.31,1.75,1.75,0,0,0-.69,1.2,1.89,1.89,0,0,0,.36,1.34,4.93,4.93,0,0,0,2.2,1.54c.45.19.89.4,1.33.62l.62.39a8.84,8.84,0,0,0,1.19.8,5.19,5.19,0,0,0,2.32.29,7.63,7.63,0,0,1,.95.09c.25.08.49.17.74.27a11.07,11.07,0,0,1,1,.71,8.21,8.21,0,0,1,.83,1,10.84,10.84,0,0,1,.78,1.82,21.78,21.78,0,0,0,.47,2.56,2.24,2.24,0,0,0,.77,1,2.77,2.77,0,0,0,1.36.49c.39.06.78.09,1.18.17a7.94,7.94,0,0,1,1.14.45,10.36,10.36,0,0,1,1.17.83l.19.24a.54.54,0,0,0,.05.11v0a.88.88,0,0,1,0,.16,3.9,3.9,0,0,0-.19.82,1.83,1.83,0,0,0,.72,1.68l0,0a1.83,1.83,0,0,0,1.78.22,4.67,4.67,0,0,0,.79-.55l.57-.5,1.1-1,2.56-2.32c1.73-1.51,3.48-3,5.18-4.54,3.48-3.15,6.78-6.5,10-9.85l0,0c1.35-1.36,2.71-2.71,4.05-4.07s2.63-2.72,3.95-4.07c-.07.06-.13.13-.2.2,1.56-1.59,3.14-3.13,4.71-4.7s3.37-3.5,5.07-5.23l-.34.34c2.52-2.54,5-5.1,7.5-7.66l-.34.35c2.11-2.13,4.23-4.26,6.33-6.41l0,0,3-3-.25.26c3.53-3.55,7.17-7,10.75-10.5,1.75-1.71,3.56-3.36,5.28-5.1,1.92-1.95,3.77-4,5.66-5.95l0-.06c.52-.54,1-1.07,1.58-1.6a2,2,0,0,0,.68-1.2,1.79,1.79,0,0,0-.37-1.34,1.87,1.87,0,0,0-1.2-.69h-.22a1.64,1.64,0,0,0-1.12.38Zm-6.62,6.93-.13.13.13-.13Zm-.15.15-.19.2.19-.2ZM15.24,93.61l.07.07a.46.46,0,0,1-.07-.07Zm3.89,2.1.07,0-.07,0Zm5.06,7.59.06.2-.06-.2Zm3.39,4,.25.07-.25-.07Zm2.85,2.09a.24.24,0,0,0,0,.08l0-.08ZM63.55,77.5h0l.1-.1-.11.1ZM82.41,58.24l.28-.28-.28.28Z"/><path class="cls-1" d="M10,91.8c-1.1,2.42-2,4.89-2.94,7.38-.83,2.23-1.68,4.45-2.4,6.72s-1.57,4.42-2.37,6.62a55.05,55.05,0,0,0-1.87,6.76c-.11.5-.25,1-.34,1.49a4.9,4.9,0,0,0-.07.67,3.72,3.72,0,0,0,.53,2.13A3.23,3.23,0,0,0,2,124.72a4.54,4.54,0,0,0,2.22.25A9.52,9.52,0,0,0,6,124.63a68.48,68.48,0,0,0,7.08-2.52c1.16-.42,2.33-.74,3.5-1.1s2.28-.74,3.41-1.16A61.14,61.14,0,0,0,26.65,117a50.46,50.46,0,0,0,5-3c.66-.45,1.32-.92,2-1.41a12.78,12.78,0,0,0,1.72-1.73A1.82,1.82,0,0,0,33.59,108a1.92,1.92,0,0,0-1.22.71l-.6.67a19.14,19.14,0,0,1-2.07,1.54c-.86.61-1.74,1.18-2.64,1.72a54,54,0,0,1-4.94,2.45c-1.87.81-3.77,1.52-5.7,2.17-.93.31-1.86.59-2.79.86s-1.94.62-2.9,1c-1.83.69-3.62,1.45-5.5,2a11.83,11.83,0,0,1-1.58.26c.08-.55.23-1.09.36-1.63.18-.8.36-1.58.56-2.36A52.3,52.3,0,0,1,6.37,112c.74-1.94,1.38-3.91,2-5.87s1.44-4,2.18-6c.88-2.32,1.75-4.64,2.77-6.91a1.82,1.82,0,0,0-1-2.36,1.77,1.77,0,0,0-.67-.13A1.86,1.86,0,0,0,10,91.8Zm-6.9,29.45.07,0-.07,0Zm0,.07.09,0-.09,0Zm.29,0,0,0h0s0,0,0,0Zm.34.06h0Zm-.12.25,0,0,0,0Z"/><path class="cls-1" d="M5.1,110.94a1.83,1.83,0,0,0,1,2.36c.42.2.85.41,1.26.63a16.61,16.61,0,0,1,2.51,1.83,9.74,9.74,0,0,1,1.42,1.65,7.94,7.94,0,0,1,.34.72c.12.29.2.6.3.9a1.84,1.84,0,0,0,2.37,1,1.86,1.86,0,0,0,1-2.38c-.14-.38-.25-.76-.4-1.14a8.2,8.2,0,0,0-1.34-2.14c-.28-.35-.63-.65-1-1s-.82-.78-1.26-1.14a18.88,18.88,0,0,0-3.89-2.32,1.51,1.51,0,0,0-.65-.15,1.89,1.89,0,0,0-1.71,1.16Zm4.48,4.52.24.24-.24-.24Z"/><path class="cls-1" d="M7.48,113a1.19,1.19,0,0,0-.53.14,1.84,1.84,0,0,0-2.33,1c-.33.78-.66,1.57-1,2.36a19,19,0,0,0-1,3,1.83,1.83,0,0,0,1.58,2,1.93,1.93,0,0,0,.76,0,1.74,1.74,0,0,0,1.45,1.13H7a2.68,2.68,0,0,0,1.08-.47c.25-.15.5-.31.73-.48a8.07,8.07,0,0,0,.73-.58,4,4,0,0,0,1.23-1.48,3.05,3.05,0,0,0,.14-.54c.23,0,.46,0,.7,0a1.8,1.8,0,0,0,.88-.36,1.94,1.94,0,0,0,.69-1.21,1.8,1.8,0,0,0-.85-1.75h0l0,0-.17-.1c-.87-.55-1.6-1.32-2.46-1.9A3.49,3.49,0,0,0,8.19,113Z"/><path class="cls-1" d="M93.52,19.08a1.94,1.94,0,0,0-1.21.71c-.89,1-1.82,1.87-2.71,2.83s-1.73,1.9-2.63,2.82l.34-.34c-1.64,1.65-3.29,3.32-5,4.94s-3.45,3.27-5.17,4.9-3.59,3.6-5.4,5.38c-.81.8-1.63,1.59-2.42,2.41l-.08.07a2.65,2.65,0,0,0-.29.29,1.8,1.8,0,0,0-.19.2l-.11.12.1-.1h0q-3.42,3.47-7,6.82c-1.21,1.15-2.41,2.33-3.61,3.51s-2.71,2.59-4,3.93l.14-.13.2-.21-.47.48c-1,1-1.91,1.91-2.83,2.89-1,1.15-2.11,2.27-3.2,3.38l.34-.34L47,65l0,0L47,65l-.22.23,0,0C45,67.09,43.16,69,41.33,70.89c-1.3,1.33-2.63,2.64-3.93,4-1.48,1.52-2.93,3.07-4.42,4.58l0,0Q30,82.48,27,85.54l.34-.34c-1.67,1.69-3.42,3.3-5,5-.73.79-1.45,1.59-2.17,2.38s-1.58,1.69-2.32,2.58a1.81,1.81,0,0,0,.37,2.53,1.84,1.84,0,0,0,2.54-.36c.88-1.06,1.85-2,2.78-3.07s1.68-1.87,2.54-2.78,1.71-1.69,2.58-2.51,1.67-1.68,2.49-2.53c1.69-1.72,3.41-3.41,5.1-5.14s3.17-3.31,4.76-4.94h0c1.27-1.29,2.55-2.54,3.8-3.84s2.57-2.72,3.87-4.07l1.68-1.7-.35.35c1.77-1.79,3.47-3.65,5.21-5.46L54.8,62l2.12-2.12,0,0,0,0,0,0,.32-.33L57,59.8c1.45-1.47,3-2.88,4.44-4.34s2.9-2.78,4.36-4.17,3.08-3,4.59-4.52l1-1,.17-.16.14-.14c.38-.4.77-.78,1.16-1.18l2.53-2.5c1.75-1.78,3.52-3.54,5.34-5.24s3.48-3.27,5.16-5S89.3,28.26,91,26.5c.69-.75,1.35-1.5,2.06-2.23s1.48-1.52,2.2-2.3a1.78,1.78,0,0,0,.35-1.34,1.85,1.85,0,0,0-.72-1.21,1.87,1.87,0,0,0-1.09-.36l-.23,0ZM46.79,65.22,47,65,47,65l-.25.26Zm9.83-5,.24-.25-.24.25Zm.24-.25,0-.05,0,.05Zm.06-.06h0l.06,0,0,0Zm0,0h0L57,59.8l-.07.07Zm-2.8-2.29-.2.21.07-.07.27-.27-.14.13Z"/><path class="cls-1" d="M101.19,26.47a2,2,0,0,0-1.22.72c-2.56,2.66-5.11,5.35-7.7,8l.34-.34c-1.32,1.33-2.6,2.68-3.83,4.09s-2.64,2.92-4,4.35c-2.55,2.68-5.13,5.33-7.71,8l.05,0-.1.11-.24.24.07-.07h0l.06-.06-.28.29-.06.06,0,0c-1.18,1.21-2.35,2.43-3.52,3.64a1.94,1.94,0,0,0-.21.2c-.3.26-.57.59-.84.84l-1.27,1.21Q68.36,59.89,66,62.17c-1.71,1.65-3.45,3.28-5.16,4.94-1.5,1.44-2.94,2.94-4.45,4.4s-3.07,2.88-4.6,4.31c-1.68,1.59-3.4,3.14-5.14,4.66-3,2.61-5.91,5.31-8.81,8-2,1.83-3.88,3.72-5.78,5.62-1,1-2.05,2-3,3S27.24,99,26.34,99.9l.09-.09-.27.28-.07.07,0,0-.61.63a1.69,1.69,0,0,0-.35,1.32,1.87,1.87,0,0,0,.72,1.22,1.84,1.84,0,0,0,1.32.34,2,2,0,0,0,1.22-.72l.15-.16,0,0c1.08-1.09,2.14-2.2,3.2-3.31,1.68-1.69,3.38-3.35,5.08-5,.85-.83,1.67-1.66,2.54-2.47l2.15-2c3-2.83,6.14-5.54,9.23-8.3,1.62-1.45,3.2-2.95,4.8-4.42s3.1-2.9,4.6-4.39,3.2-3.18,4.82-4.74l4.87-4.66,3-2.85,1.49-1.42c.26-.25.5-.49.75-.75l.16-.16a1.81,1.81,0,0,0,.24-.24l.19-.19.07-.08.24-.24.73-.77c.89-.93,1.8-1.86,2.7-2.79l-.08.09,0,0-.08.09q3.93-4,7.78-8c1.25-1.31,2.51-2.62,3.71-4s2.34-2.66,3.57-3.93c2.87-2.93,5.71-5.9,8.55-8.87a1.66,1.66,0,0,0,.35-1.32,1.88,1.88,0,0,0-.71-1.22,1.94,1.94,0,0,0-1.09-.35Zm-7,11.85-.09.1.09-.1Zm-15.17,16a3.19,3.19,0,0,0,.26-.26,3.19,3.19,0,0,1-.26.26Zm-2.47-2.61,0,0,.22-.23c-.09.08-.17.17-.26.26Z"/><path class="cls-1" d="M104,2.59a1.54,1.54,0,0,0-.27.58,2,2,0,0,0-.92.67,2,2,0,0,0-.26.51l-.2,0a5.68,5.68,0,0,0-.88-.17,3.92,3.92,0,0,0-1.08,0,2.34,2.34,0,0,0-1.51,1,2,2,0,0,0-.18,2,6.17,6.17,0,0,0,.55.88,2.2,2.2,0,0,0-.2.23,1.82,1.82,0,0,0-.33.87,1.77,1.77,0,0,0,.73,1.67c1.56.95,3,2.09,4.47,3.17,1,.76,2,1.51,3,2.28a1.65,1.65,0,0,0,.63.82l2.21,1.43L111.66,20l.81,1.06,1.13,1.54a19.07,19.07,0,0,0,1.5,2,1.86,1.86,0,0,0,1.67.66,1.79,1.79,0,0,0,.87-.37,1.66,1.66,0,0,0,.4-.45h0a1.87,1.87,0,0,0,1.67-.74,1.79,1.79,0,0,0,0-2.19c-.22-.22-.44-.44-.67-.65a1.81,1.81,0,0,0,.71-.86,1.75,1.75,0,0,0,.11-.58,2,2,0,0,0,.66.2,1.74,1.74,0,0,0,1.34-.39,1.84,1.84,0,0,0,.68-1.21,1.5,1.5,0,0,0,0-.3,1.76,1.76,0,0,0,.22-.68,1.9,1.9,0,0,0-.39-1.33A15.09,15.09,0,0,0,121,14c-.54-.64-1.08-1.28-1.64-1.9-.32-.36-.65-.72-1-1.07a31.9,31.9,0,0,0-2-2.62,20.66,20.66,0,0,0-7-5.15c-1-.46-2.12-.86-3.18-1.26a1.92,1.92,0,0,0-.66-.12,1.82,1.82,0,0,0-1.47.75Z"/><path class="cls-1" d="M105,7.91c-1.18.23-2.36.43-3.54.64-.6.12-1.22.3-1.84.39a1.67,1.67,0,0,0-.83-.1,1.85,1.85,0,0,0-1.59,2A2,2,0,0,0,98,12.21a2.24,2.24,0,0,0,1.65.39,11,11,0,0,0,1.52-.29c1.42-.31,2.87-.52,4.29-.8a1.82,1.82,0,0,0-.15-3.62,1.23,1.23,0,0,0-.27,0Zm-4.2,2.54v0a0,0,0,0,0,0,0Z"/><path class="cls-1" d="M98.56,8.24a1.77,1.77,0,0,0-.37,1.33,1.83,1.83,0,0,0,.7,1.22,1.94,1.94,0,0,0,1.32.36,1.75,1.75,0,0,0,1.22-.7,1.8,1.8,0,0,0-.33-2.54,2,2,0,0,0-1.32-.36,1.73,1.73,0,0,0-1.22.69Z"/></g></g></svg>